<svg width="282" height="239" viewBox="0 0 282 239" fill="none" xmlns="http://www.w3.org/2000/svg">
<path opacity="0.1" d="M279.884 164.783C272.228 126.172 227.369 95.3127 218.619 55.0772C202.718 3.88673 150.304 -4.20658 116.245 18.0254C62.2773 53.2523 119.849 61.9941 14.0369 145.339C-12.0905 165.918 -3.76514 256.761 78.4303 235.913C122.664 224.693 136.111 223.119 156.008 221.271C206.158 216.615 292.737 229.597 279.884 164.783Z" fill="#D1A3BC"/>
<path d="M219.975 174.461L142.463 215.399L65.0674 174.461V112.641H219.975V174.461Z" fill="white"/>
<path d="M142.463 216.026C142.36 216.026 142.259 216.001 142.169 215.952L64.7759 175.014C64.6753 174.961 64.591 174.882 64.5321 174.784C64.4732 174.687 64.4418 174.575 64.4414 174.462V112.64C64.4414 112.473 64.5076 112.313 64.6253 112.196C64.7431 112.078 64.9028 112.012 65.0693 112.012H219.975C220.141 112.012 220.301 112.078 220.419 112.196C220.537 112.313 220.603 112.473 220.603 112.64V174.46C220.602 174.573 220.571 174.685 220.512 174.782C220.453 174.88 220.369 174.959 220.268 175.012L142.756 215.951C142.666 215.999 142.565 216.025 142.463 216.026ZM65.6952 174.082L142.463 214.688L219.347 174.081V113.268H65.6952V174.082Z" fill="#D4D4D4"/>
<path d="M219.974 99.3755L142.462 58.4373L177.293 41.6484L254.805 82.5871L219.974 99.3755Z" fill="white"/>
<path d="M219.974 100.003C219.872 100.003 219.771 99.9785 219.681 99.9309L142.168 58.9922C142.066 58.9379 141.98 58.8561 141.921 58.756C141.862 58.6559 141.832 58.5415 141.834 58.4253C141.836 58.3091 141.871 58.1959 141.933 58.098C141.996 58.0002 142.084 57.9216 142.189 57.8711L177.02 41.0822C177.109 41.0392 177.206 41.0178 177.304 41.0196C177.403 41.0215 177.499 41.0465 177.586 41.0927L255.098 82.0314C255.201 82.0857 255.287 82.1674 255.346 82.2674C255.405 82.3675 255.435 82.4819 255.433 82.5981C255.431 82.7142 255.396 82.8275 255.334 82.9253C255.271 83.0231 255.182 83.1016 255.078 83.1521L220.247 99.941C220.162 99.9821 220.068 100.003 219.974 100.003ZM143.855 58.4618L219.987 98.6711L253.412 82.5604L177.28 42.352L143.855 58.4618Z" fill="#D4D4D4"/>
<path d="M65.0674 99.3755L142.58 58.4373L107.749 41.6484L30.2363 82.5871L65.0674 99.3755Z" fill="white"/>
<path d="M65.0672 100.003C64.9728 100.003 64.8796 99.982 64.7945 99.941L29.9654 83.1521C29.8608 83.1016 29.7722 83.0231 29.7096 82.9253C29.6469 82.8275 29.6126 82.7142 29.6105 82.5981C29.6083 82.4819 29.6384 82.3675 29.6975 82.2674C29.7565 82.1674 29.8421 82.0857 29.9448 82.0314L107.457 41.0927C107.544 41.0465 107.641 41.0215 107.739 41.0196C107.837 41.0178 107.935 41.0392 108.023 41.0822L142.854 57.8711C142.959 57.9216 143.047 58.0002 143.11 58.098C143.173 58.1959 143.207 58.3091 143.209 58.4253C143.211 58.5415 143.181 58.6559 143.122 58.756C143.063 58.8561 142.978 58.9379 142.875 58.9922L65.3626 99.9309C65.2716 99.9788 65.1701 100.004 65.0672 100.003ZM31.6291 82.5614L65.0542 98.6721L141.187 58.4628L107.762 42.352L31.6291 82.5614Z" fill="#D4D4D4"/>
<path d="M65.0661 99.375L142.578 140.314L102.724 162.125L25.2119 121.187L65.0661 99.375Z" fill="white"/>
<path d="M102.724 162.752C102.622 162.752 102.521 162.727 102.431 162.679L24.9187 121.74C24.8186 121.687 24.7347 121.608 24.676 121.511C24.6173 121.414 24.5858 121.304 24.585 121.19C24.5842 121.077 24.614 120.966 24.6713 120.868C24.7287 120.77 24.8113 120.69 24.9106 120.635L64.7649 98.8233C64.8559 98.7733 64.9579 98.7468 65.0617 98.7461C65.1655 98.7454 65.2679 98.7705 65.3596 98.8193L142.872 139.758C142.972 139.811 143.056 139.89 143.115 139.987C143.173 140.084 143.205 140.195 143.206 140.308C143.206 140.421 143.177 140.533 143.119 140.63C143.062 140.728 142.979 140.809 142.88 140.863L103.026 162.675C102.933 162.726 102.83 162.752 102.724 162.752ZM26.5381 121.176L102.719 161.411L141.253 140.322L65.0718 100.087L26.5381 121.176Z" fill="#D4D4D4"/>
<path d="M219.973 99.375L142.461 140.314L182.315 162.125L259.827 121.187L219.973 99.375Z" fill="white"/>
<path d="M182.316 162.752C182.211 162.752 182.107 162.726 182.015 162.675L142.161 140.863C142.061 140.809 141.979 140.728 141.921 140.63C141.864 140.533 141.834 140.421 141.835 140.308C141.836 140.195 141.867 140.084 141.926 139.987C141.985 139.89 142.069 139.811 142.169 139.758L219.681 98.8193C219.773 98.7705 219.875 98.7454 219.979 98.7461C220.083 98.7468 220.185 98.7733 220.276 98.8233L260.13 120.635C260.229 120.69 260.312 120.77 260.369 120.868C260.427 120.966 260.456 121.077 260.456 121.19C260.455 121.304 260.423 121.414 260.365 121.511C260.306 121.608 260.222 121.687 260.122 121.74L182.61 162.679C182.519 162.727 182.418 162.752 182.316 162.752ZM143.789 140.322L182.322 161.411L258.503 121.176L219.969 100.087L143.789 140.322Z" fill="#D4D4D4"/>
<path d="M142.579 58.4375L65.0664 99.3757L142.462 140.314L219.974 99.3757L142.579 58.4375Z" fill="#D4D4D4"/>
<path d="M143.09 140.312H141.834V215.398H143.09V140.312Z" fill="#D4D4D4"/>
<path d="M99.0333 95.6573C98.9294 95.6573 98.828 95.6248 98.7435 95.5643C98.6348 95.4873 98.5611 95.3703 98.5387 95.239C98.5163 95.1077 98.5469 94.9728 98.6239 94.8641C98.7169 94.733 107.795 81.6085 97.6605 69.6433C95.8667 67.5146 93.6291 65.8039 91.1045 64.6311C88.5799 63.4583 85.8294 62.8518 83.0456 62.8541H82.909C83.8714 66.1975 83.6996 69.1702 82.3369 71.4507C81.7562 72.4812 80.8993 73.3291 79.8627 73.8989C78.8261 74.4686 77.651 74.7376 76.4698 74.6755C75.492 74.5955 74.5588 74.232 73.7845 73.6295C73.0101 73.0271 72.4283 72.212 72.1102 71.2839C70.9956 68.3765 72.1605 65.5575 75.2306 63.7406C77.1755 62.6681 79.3367 62.0465 81.5543 61.9218C80.8329 60.0091 79.8948 58.1854 78.7584 56.4862C75.099 50.8974 68.4298 47.0286 60.46 45.8718C53.7059 44.8918 47.2331 46.0461 43.9675 48.8118C43.8658 48.8979 43.734 48.94 43.6013 48.9289C43.4685 48.9179 43.3455 48.8545 43.2595 48.7528C43.1734 48.6511 43.1313 48.5193 43.1424 48.3866C43.1534 48.2538 43.2168 48.1308 43.3185 48.0448C46.7935 45.1017 53.5783 43.8575 60.6042 44.8802C68.8587 46.0787 75.7817 50.1088 79.5993 55.9382C80.8369 57.7869 81.8437 59.7802 82.5971 61.8735C85.6 61.8014 88.5809 62.4039 91.3201 63.6366C94.0593 64.8693 96.4871 66.7009 98.4245 68.9964C109.07 81.5638 99.5382 95.3102 99.4407 95.4478C99.3943 95.5125 99.3331 95.5653 99.2623 95.6017C99.1915 95.6381 99.113 95.6572 99.0333 95.6573ZM81.8803 62.8907C79.7303 62.9824 77.6305 63.5693 75.7445 64.6056C73.0943 66.1739 72.1127 68.4775 73.0506 70.9248C73.3047 71.6746 73.7718 72.3342 74.3949 72.8227C75.018 73.3112 75.7699 73.6076 76.5587 73.6754C77.552 73.7199 78.538 73.4873 79.4065 73.0034C80.2751 72.5196 80.9919 71.8037 81.4769 70.9358C82.7277 68.8411 82.8422 66.0568 81.8788 62.8907H81.8803Z" fill="#D1A3BC"/>
<path d="M35.2979 56.9108C34.4443 57.1672 33.5243 57.0803 32.7338 56.6685C31.9433 56.2568 31.3448 55.5527 31.0656 54.7063C30.7865 53.8598 30.8488 52.9378 31.2393 52.1366C31.6298 51.3354 32.3176 50.7183 33.1563 50.4167C33.995 50.115 34.9183 50.1527 35.7297 50.5217C36.541 50.8906 37.1763 51.5617 37.5002 52.3921C37.8241 53.2224 37.8111 54.1464 37.464 54.9673C37.1168 55.7882 36.4629 56.4412 35.6415 56.7872C35.5293 56.8346 35.4146 56.8759 35.2979 56.9108ZM33.6277 51.329C33.5463 51.3535 33.4663 51.3823 33.3881 51.4154C32.8101 51.6591 32.3501 52.1188 32.1061 52.6966C31.8621 53.2745 31.8533 53.9247 32.0816 54.5089C32.3099 55.0931 32.7573 55.5651 33.3284 55.8244C33.8996 56.0836 34.5494 56.1096 35.1394 55.8969C35.7295 55.6841 36.2131 55.2494 36.4874 54.6853C36.7617 54.1212 36.8049 53.4723 36.6078 52.8768C36.4107 52.2814 35.989 51.7864 35.4323 51.4972C34.8757 51.2081 34.2282 51.1478 33.6277 51.329Z" fill="#D1A3BC"/>
<path d="M35.2915 49.0404C34.484 49.2815 33.6159 49.2156 32.8541 48.8554C32.0923 48.4951 31.4905 47.866 31.1645 47.0889C30.9031 46.4659 30.8323 45.7794 30.9611 45.1162C31.0899 44.453 31.4124 43.8428 31.888 43.363C32.3635 42.8831 32.9707 42.555 33.6328 42.4202C34.2948 42.2854 34.9819 42.35 35.6072 42.6058C36.2325 42.8615 36.768 43.297 37.1458 43.857C37.5237 44.4171 37.7269 45.0766 37.7299 45.7522C37.7329 46.4278 37.5354 47.0891 37.1626 47.6525C36.7897 48.2159 36.2581 48.6561 35.6351 48.9173C35.5228 48.9643 35.4081 49.0054 35.2915 49.0404ZM33.6233 43.4582C33.541 43.4829 33.46 43.5119 33.3807 43.5451C32.7914 43.7926 32.3245 44.2639 32.0826 44.8556C31.8407 45.4472 31.8437 46.1106 32.0907 46.7001C32.2709 47.1298 32.5718 47.4981 32.9569 47.7604C33.342 48.0227 33.7948 48.1678 34.2607 48.1782C34.7265 48.1885 35.1854 48.0637 35.5817 47.8187C35.9781 47.5738 36.295 47.2192 36.4941 46.798C36.6932 46.3767 36.766 45.9068 36.7037 45.445C36.6413 44.9833 36.4465 44.5495 36.1428 44.1961C35.8391 43.8427 35.4395 43.5849 34.9924 43.4539C34.5452 43.3228 34.0697 43.3246 33.6233 43.4582Z" fill="#D1A3BC"/>
<path d="M34.3162 52.5915C36.783 52.5915 38.7828 51.2559 38.7828 49.6083C38.7828 47.9606 36.783 46.625 34.3162 46.625C31.8494 46.625 29.8496 47.9606 29.8496 49.6083C29.8496 51.2559 31.8494 52.5915 34.3162 52.5915Z" fill="white"/>
<path d="M36.2941 52.8106C35.6538 52.9998 34.9893 53.0953 34.3216 53.0939C31.5347 53.0939 29.3486 51.5668 29.3486 49.6123C29.3486 47.6578 31.5282 46.1253 34.314 46.1222C35.5286 46.0989 36.7236 46.4306 37.7524 47.0766C38.2144 47.3174 38.6017 47.6801 38.8721 48.1254C39.1425 48.5708 39.2857 49.0817 39.2862 49.6027C39.2867 50.1237 39.1444 50.6348 38.8748 51.0807C38.6051 51.5265 38.2185 51.8899 37.7569 52.1314C37.3056 52.429 36.8127 52.6578 36.2941 52.8106ZM32.6463 47.366C31.3041 47.7678 30.3528 48.6353 30.3533 49.6098C30.3533 50.9545 32.1701 52.0892 34.3216 52.0872C35.3378 52.1086 36.3383 51.8335 37.2008 51.2956C37.5243 51.1466 37.7983 50.908 37.9902 50.608C38.1821 50.308 38.2839 49.9592 38.2836 49.6031C38.2833 49.2469 38.1809 48.8984 37.9884 48.5987C37.7959 48.2991 37.5216 48.0609 37.1978 47.9125C36.3347 47.3757 35.3337 47.1023 34.3175 47.1259C33.7518 47.1244 33.1888 47.2053 32.6463 47.366Z" fill="#D1A3BC"/>
<path d="M35.4118 52.5006L35.3063 46.6989L33.8637 46.6406L33.7627 52.5684L35.4118 52.5006Z" fill="#D1A3BC"/>
<path d="M28.3908 50.8715C28.6455 50.8715 28.8519 50.665 28.8519 50.4103C28.8519 50.1557 28.6455 49.9492 28.3908 49.9492C28.1361 49.9492 27.9297 50.1557 27.9297 50.4103C27.9297 50.665 28.1361 50.8715 28.3908 50.8715Z" fill="#D1A3BC"/>
<path d="M28.7512 48.4027C29.0058 48.4027 29.2123 48.1963 29.2123 47.9416C29.2123 47.6869 29.0058 47.4805 28.7512 47.4805C28.4965 47.4805 28.29 47.6869 28.29 47.9416C28.29 48.1963 28.4965 48.4027 28.7512 48.4027Z" fill="#D1A3BC"/>
<path d="M177.959 66.6899C177.852 66.6899 177.747 66.6554 177.66 66.5915C177.574 66.5275 177.51 66.4376 177.479 66.3348C175.813 60.1129 175.368 53.6272 176.17 47.2362C177.468 37.8932 182.621 25.6311 199.794 20.2619C202.21 19.485 204.688 18.9168 207.202 18.5636C208.011 13.5098 211.089 8.02749 217.974 4.24506C234.33 -4.74237 245.378 3.3213 245.488 3.40368C245.594 3.48361 245.665 3.60261 245.684 3.73449C245.703 3.86638 245.668 4.00034 245.588 4.10692C245.508 4.2135 245.389 4.28396 245.257 4.3028C245.126 4.32164 244.992 4.28732 244.885 4.20738C244.781 4.12902 234.222 -3.53681 218.458 5.12612C212.025 8.66091 209.081 13.7343 208.243 18.444C215.818 17.6981 219.445 20.2247 221.073 22.133C222.08 23.2806 222.727 24.6991 222.934 26.212C223.141 27.7248 222.898 29.265 222.235 30.6407C221.712 31.7527 220.863 32.6796 219.802 33.2993C218.74 33.9189 217.516 34.202 216.29 34.1112C212.06 33.8631 208.56 30.3047 207.373 25.0454C206.982 23.2651 206.878 21.4336 207.065 19.6204C204.701 19.9601 202.369 20.4962 200.094 21.2233C186.71 25.4081 178.997 34.2082 177.164 47.3774C176.379 53.6233 176.812 59.9622 178.439 66.0434C178.462 66.1185 178.467 66.198 178.454 66.2754C178.441 66.3528 178.41 66.4261 178.363 66.4892C178.316 66.5524 178.255 66.6037 178.185 66.6391C178.115 66.6745 178.038 66.6929 177.959 66.6929V66.6899ZM208.089 19.4949C207.88 21.2735 207.969 23.0747 208.353 24.8239C209.439 29.6351 212.577 32.8866 216.349 33.1081C217.377 33.1818 218.403 32.943 219.293 32.4231C220.183 31.9031 220.895 31.1264 221.336 30.1947C221.91 28.995 222.119 27.653 221.936 26.3356C221.753 25.0182 221.187 23.7838 220.307 22.786C217.958 20.0298 213.672 18.9167 208.089 19.4949Z" fill="#D1A3BC"/>
<path d="M257.188 8.47975C256.512 8.47834 255.849 8.28563 255.278 7.92389C254.706 7.56215 254.248 7.04611 253.957 6.43533C253.666 5.82455 253.554 5.14394 253.633 4.47203C253.712 3.80013 253.98 3.16432 254.405 2.638C254.83 2.11169 255.395 1.7163 256.036 1.49749C256.676 1.27868 257.365 1.24536 258.023 1.40138C258.682 1.55739 259.282 1.89638 259.756 2.37923C260.23 2.86207 260.558 3.46908 260.702 4.1302C260.814 4.65428 260.808 5.1969 260.684 5.71834C260.56 6.23978 260.32 6.72683 259.984 7.14382C259.647 7.56082 259.221 7.89721 258.737 8.12836C258.254 8.35952 257.724 8.47958 257.188 8.47975ZM257.196 2.30931C256.662 2.3093 256.141 2.475 255.704 2.78357C255.268 3.09214 254.939 3.5284 254.761 4.03221C254.583 4.53602 254.566 5.08258 254.712 5.59656C254.857 6.11055 255.159 6.56665 255.575 6.90201C255.991 7.23737 256.501 7.43548 257.034 7.46902C257.567 7.50257 258.097 7.36991 258.552 7.08932C259.007 6.80873 259.363 6.39403 259.572 5.90238C259.781 5.41072 259.833 4.86632 259.72 4.34419C259.597 3.76651 259.279 3.24871 258.82 2.87805C258.36 2.50739 257.786 2.30652 257.196 2.30931Z" fill="#D1A3BC"/>
<path d="M255.676 16.6796C254.756 16.6795 253.87 16.3265 253.202 15.6931C252.534 15.0598 252.134 14.1944 252.084 13.2751C252.035 12.3558 252.34 11.4525 252.936 10.7512C253.533 10.0499 254.375 9.60393 255.291 9.50515C256.206 9.40637 257.124 9.66228 257.857 10.2202C258.589 10.7781 259.08 11.5955 259.228 12.5043C259.375 13.413 259.169 14.3438 258.652 15.1051C258.134 15.8664 257.344 16.4002 256.444 16.5967C256.192 16.6517 255.935 16.6795 255.676 16.6796ZM255.689 10.5086C255.503 10.5087 255.318 10.5287 255.136 10.5684C254.495 10.7093 253.932 11.0908 253.563 11.6344C253.194 12.1779 253.047 12.8422 253.153 13.4906C253.259 14.1389 253.609 14.722 254.132 15.1198C254.655 15.5177 255.31 15.7 255.963 15.6294C256.617 15.5587 257.218 15.2404 257.643 14.74C258.069 14.2395 258.287 13.595 258.251 12.939C258.216 12.283 257.931 11.6654 257.454 11.2133C256.978 10.7613 256.346 10.509 255.689 10.5086Z" fill="#D1A3BC"/>
<path d="M261.071 9.94589C261.388 8.23016 259.562 6.455 256.993 5.98098C254.424 5.50696 252.085 6.51359 251.769 8.22932C251.452 9.94506 253.278 11.7202 255.847 12.1942C258.415 12.6682 260.755 11.6616 261.071 9.94589Z" fill="white"/>
<path d="M257.111 12.8142C256.656 12.8134 256.202 12.7714 255.755 12.6886C254.492 12.479 253.317 11.9054 252.375 11.038C251.962 10.6862 251.645 10.2361 251.453 9.72931C251.261 9.22254 251.199 8.67545 251.274 8.13862C251.396 7.61039 251.649 7.12133 252.009 6.7166C252.37 6.31187 252.827 6.00452 253.337 5.82294C254.532 5.37165 255.828 5.25562 257.084 5.48741C258.34 5.71919 259.508 6.28997 260.464 7.138C260.876 7.48982 261.193 7.93991 261.385 8.44668C261.578 8.95345 261.639 9.50054 261.564 10.0374C261.443 10.5656 261.19 11.0547 260.829 11.4594C260.469 11.8641 260.012 12.1715 259.501 12.353C258.744 12.6665 257.931 12.8234 257.111 12.8142ZM255.724 6.36544C255.042 6.35677 254.365 6.48611 253.734 6.7457C253.377 6.86517 253.056 7.07179 252.799 7.34685C252.542 7.6219 252.357 7.95671 252.262 8.32096C252.221 8.69511 252.274 9.07364 252.416 9.42228C252.558 9.77093 252.784 10.0787 253.075 10.3177C253.888 11.0268 254.876 11.5043 255.936 11.7001C256.997 11.8958 258.091 11.8027 259.103 11.4303C259.46 11.3108 259.781 11.1042 260.038 10.8291C260.295 10.5541 260.48 10.2193 260.575 9.85503C260.616 9.48086 260.564 9.10224 260.422 8.75355C260.28 8.40486 260.053 8.09714 259.762 7.85832C258.962 7.12885 257.967 6.64829 256.899 6.47545C256.512 6.4034 256.119 6.36658 255.726 6.36544H255.724Z" fill="#D1A3BC"/>
<path d="M255.839 5.86719L254.829 11.9281L256.319 12.2677L257.569 6.11483L255.839 5.86719Z" fill="#D1A3BC"/>
<path d="M261.895 12.3867C262.164 12.3867 262.383 12.1681 262.383 11.8984C262.383 11.6288 262.164 11.4102 261.895 11.4102C261.625 11.4102 261.406 11.6288 261.406 11.8984C261.406 12.1681 261.625 12.3867 261.895 12.3867Z" fill="#D1A3BC"/>
<path d="M262.746 9.88666C263.016 9.88666 263.234 9.66806 263.234 9.39841C263.234 9.12875 263.016 8.91016 262.746 8.91016C262.476 8.91016 262.258 9.12875 262.258 9.39841C262.258 9.66806 262.476 9.88666 262.746 9.88666Z" fill="#D1A3BC"/>
</svg>
