<svg width="48" height="48" viewBox="0 0 48 48" fill="none" xmlns="http://www.w3.org/2000/svg">
<rect x="0.769231" y="0.769231" width="46.4615" height="46.4615" rx="3.23077" fill="#F1F3F7" stroke="#414141" stroke-width="1.53846"/>
<g filter="url(#filter0_d_757_41136)">
<path d="M13.2539 17.8971C13.2539 16.26 14.581 14.9329 16.2182 14.9329H31.7805C33.4176 14.9329 34.7447 16.26 34.7447 17.8971V29.662C34.7447 31.2991 33.4176 32.6262 31.7805 32.6262H16.2182C14.581 32.6262 13.2539 31.2991 13.2539 29.662L13.2539 17.8971Z" fill="white" stroke="#414141" stroke-width="1.23077" stroke-linecap="round" stroke-linejoin="round"/>
<path d="M14.3984 15.5303L22.6063 22.9007C23.395 23.6089 24.5935 23.5996 25.3711 22.879L33.3014 15.5303" fill="#0075B4"/>
<path d="M14.3984 15.7136L22.6063 23.084C23.395 23.7923 24.5935 23.7829 25.3711 23.0624L33.3014 15.7136" stroke="#414141" stroke-width="1.23077" stroke-linecap="round" stroke-linejoin="round"/>
</g>
<defs>
<filter id="filter0_d_757_41136" x="8.63867" y="11.3174" width="30.7207" height="26.9243" filterUnits="userSpaceOnUse" color-interpolation-filters="sRGB">
<feFlood flood-opacity="0" result="BackgroundImageFix"/>
<feColorMatrix in="SourceAlpha" type="matrix" values="0 0 0 0 0 0 0 0 0 0 0 0 0 0 0 0 0 0 127 0" result="hardAlpha"/>
<feOffset dy="1"/>
<feGaussianBlur stdDeviation="2"/>
<feComposite in2="hardAlpha" operator="out"/>
<feColorMatrix type="matrix" values="0 0 0 0 0.0969792 0 0 0 0 0.127894 0 0 0 0 0.2375 0 0 0 0.08 0"/>
<feBlend mode="normal" in2="BackgroundImageFix" result="effect1_dropShadow_757_41136"/>
<feBlend mode="normal" in="SourceGraphic" in2="effect1_dropShadow_757_41136" result="shape"/>
</filter>
</defs>
</svg>
