<svg width="54" height="37" viewBox="0 0 54 37" fill="none" xmlns="http://www.w3.org/2000/svg">
<path fill-rule="evenodd" clip-rule="evenodd" d="M0.214844 9.81387V5C0.214844 3.80653 0.666373 2.66193 1.4701 1.81802C2.27383 0.974106 3.36392 0.5 4.50056 0.5H49.5006C50.6372 0.5 51.7273 0.974106 52.531 1.81802C53.3347 2.66193 53.7863 3.80653 53.7863 5V10.0063C53.7861 10.7128 53.5879 11.4038 53.2164 11.9929C52.8449 12.582 52.3165 13.0434 51.697 13.3194C50.7234 13.7521 49.8934 14.4776 49.3117 15.4045C48.7299 16.3315 48.4223 17.4184 48.4275 18.5285C48.4328 19.6386 48.7507 20.7222 49.3413 21.643C49.9318 22.5638 50.7686 23.2806 51.7463 23.7031C52.3498 23.9644 52.8658 24.408 53.229 24.9776C53.5922 25.5472 53.7861 26.2172 53.7863 26.9026V32C53.7863 33.1935 53.3347 34.3381 52.531 35.182C51.7273 36.0259 50.6372 36.5 49.5006 36.5H4.50056C3.36392 36.5 2.27383 36.0259 1.4701 35.182C0.666373 34.3381 0.214844 33.1935 0.214844 32V27.2041C0.214844 25.6629 1.0752 24.2645 2.41449 23.6311C3.35687 23.186 4.15657 22.4642 4.71722 21.5528C5.27788 20.6413 5.57557 19.5791 5.57444 18.4941C5.57331 17.4091 5.2734 16.3476 4.71084 15.4374C4.14829 14.5273 3.34709 13.8073 2.40377 13.3644C1.75197 13.0571 1.19861 12.5587 0.810268 11.929C0.421929 11.2993 0.215161 10.5652 0.214844 9.815M38.7863 12.875C39.6388 12.875 40.4563 12.5194 41.0591 11.8865C41.6619 11.2536 42.0006 10.3951 42.0006 9.5C42.0006 8.60489 41.6619 7.74645 41.0591 7.11351C40.4563 6.48058 39.6388 6.125 38.7863 6.125C37.9338 6.125 37.1162 6.48058 36.5134 7.11351C35.9106 7.74645 35.572 8.60489 35.572 9.5C35.572 10.3951 35.9106 11.2536 36.5134 11.8865C37.1162 12.5194 37.9338 12.875 38.7863 12.875ZM38.7863 21.875C39.6388 21.875 40.4563 21.5194 41.0591 20.8865C41.6619 20.2536 42.0006 19.3951 42.0006 18.5C42.0006 17.6049 41.6619 16.7464 41.0591 16.1135C40.4563 15.4806 39.6388 15.125 38.7863 15.125C37.9338 15.125 37.1162 15.4806 36.5134 16.1135C35.9106 16.7464 35.572 17.6049 35.572 18.5C35.572 19.3951 35.9106 20.2536 36.5134 20.8865C37.1162 21.5194 37.9338 21.875 38.7863 21.875ZM38.7863 30.875C39.6388 30.875 40.4563 30.5194 41.0591 29.8865C41.6619 29.2535 42.0006 28.3951 42.0006 27.5C42.0006 26.6049 41.6619 25.7465 41.0591 25.1135C40.4563 24.4806 39.6388 24.125 38.7863 24.125C37.9338 24.125 37.1162 24.4806 36.5134 25.1135C35.9106 25.7465 35.572 26.6049 35.572 27.5C35.572 28.3951 35.9106 29.2535 36.5134 29.8865C37.1162 30.5194 37.9338 30.875 38.7863 30.875Z" fill="#E6F6FF"/>
</svg>
