<svg width="637" height="483" viewBox="0 0 637 483" fill="none" xmlns="http://www.w3.org/2000/svg">
<path fill-rule="evenodd" clip-rule="evenodd" d="M-54.8745 210.23L-2.35818 351.918L32.8647 471.703H46.7735L-7.0746 210.23L-54.8745 210.23Z" fill="#997659"/>
<path fill-rule="evenodd" clip-rule="evenodd" d="M27.1691 466.285C25.9721 469.705 25.3735 472.264 25.3735 473.961C25.3735 476.026 25.695 479.039 26.3378 483C28.5762 483 48.6924 483 86.6866 483C88.2549 477.452 87.3496 474.457 83.9708 474.014C80.5919 473.572 77.7851 473.173 75.5502 472.816L47.5007 459.435C46.961 459.178 46.3284 459.437 46.0878 460.015C46.0836 460.024 46.0797 460.034 46.0758 460.044L44.2728 464.725C41.1449 466.286 38.6032 467.067 36.6476 467.067C35.0587 467.067 32.8645 466.381 30.0648 465.007C28.9905 464.48 27.7203 464.985 27.2278 466.135C27.2065 466.184 27.187 466.234 27.1691 466.285Z" fill="#E4E4E4"/>
<path fill-rule="evenodd" clip-rule="evenodd" d="M-19.5648 459.365L46.5647 451.715L-2.44511 210.23H-61.6748L-19.5648 459.365Z" fill="#966A84"/>
<path fill-rule="evenodd" clip-rule="evenodd" d="M27.0326 183.958L64.9752 203.898C74.5231 204.797 82.6764 206.619 89.4353 209.364C91.1111 210.493 93.325 213.002 87.2522 213.642C81.1794 214.282 74.8183 215.246 74.3501 217.578C73.882 219.911 77.9368 221.829 76.7494 225.081C75.9577 227.249 69.8851 223.333 58.5315 213.335L22.825 204.918L27.0326 183.958ZM-101.871 209.216L-79.8357 205.153C-85.7309 254.455 -88.9848 280.638 -89.5973 283.703C-90.9753 290.597 -84.2009 299.423 -81.1267 304.273C-87.7489 309.053 -89.0727 296.227 -97.3982 302.429C-104.997 308.089 -110.068 316.704 -120.663 312.227C-121.966 311.676 -123.733 309.012 -120.995 306.152C-114.175 299.029 -104.635 287.013 -103.663 283.467C-102.337 278.632 -101.74 253.881 -101.871 209.216Z" fill="#B28B67"/>
<path fill-rule="evenodd" clip-rule="evenodd" d="M-55.5055 99.0198L-46.668 95.6364C-7.7369 120.355 15.993 177.477 62.6468 201.306L54.842 216.352C-18.6089 220.439 -48.4347 150.93 -55.5055 99.0198Z" fill="#27568E"/>
<path fill-rule="evenodd" clip-rule="evenodd" d="M-75.1346 228.443C-38.6001 221.55 -11.7261 216.479 5.48738 213.231C9.17139 212.536 7.54383 207.002 6.54031 204.245C-5.04161 172.416 -34.8936 141.384 -42.6311 94.4258L-66.5261 94.9307C-80.3332 131.501 -80.3021 173.313 -75.1346 228.443Z" fill="#DDE3E9"/>
<path fill-rule="evenodd" clip-rule="evenodd" d="M148.744 53.4697C152.467 67.6854 157.318 99.6391 152.368 104.651H121.048C121.045 104.594 121.042 104.536 121.039 104.479C109.43 103.148 100.402 92.9487 100.402 80.5644V57.062C100.402 43.7729 110.798 33 123.622 33H125.782C137.427 33 147.071 41.8845 148.744 53.4697Z" fill="#3D3D3D"/>
<path fill-rule="evenodd" clip-rule="evenodd" d="M112.565 76.0766C107.588 70.0234 104.22 62.605 104.783 54.2925C106.405 30.3419 138.578 35.6108 144.836 47.699C151.094 59.7872 150.35 90.4499 142.262 92.6104C139.037 93.472 132.165 91.3614 125.172 86.9931L129.561 119.175H103.642L112.565 76.0766Z" fill="#D4A181"/>
<path fill-rule="evenodd" clip-rule="evenodd" d="M119.572 72.0306C120.766 85.324 120.287 100.505 116.728 104.108H85.4089C83.6638 72.6894 100.529 84.8562 100.529 55.2744C101.58 54.2098 102.574 53.1561 103.557 52.2474L103.522 51.3774C108.945 39.8719 115.826 34.1192 124.163 34.1192C136.669 34.1192 140.617 40.1496 143.978 45.2695C141.465 54.2061 131.711 55.5312 123.045 61.1016C122.023 60.2415 120.721 59.726 119.302 59.726C116.021 59.726 113.362 62.4819 113.362 65.8814C113.362 69.281 116.021 72.0368 119.302 72.0368C119.392 72.0368 119.482 72.0347 119.572 72.0306Z" fill="#3D3D3D"/>
<path fill-rule="evenodd" clip-rule="evenodd" d="M61.9629 321.842C87.871 329.352 110.224 333.106 129.021 333.106C147.819 333.106 165.278 327.324 181.401 315.76C156.047 308.052 135.168 304.198 118.762 304.198C102.356 304.198 83.4228 310.079 61.9629 321.842Z" fill="#6F7880"/>
<path fill-rule="evenodd" clip-rule="evenodd" d="M151.45 343.93C151.2 343.541 150.989 343.118 150.821 342.659C147.358 333.168 91.8885 230.784 86.3623 212.066H148.814C153.015 226.298 171.926 315.61 174.588 333.429C182.985 361.537 200.274 452.568 202.481 458.875C204.803 465.509 191.739 472.42 188.257 464.264C182.718 451.286 169.52 415.378 163.643 393.453C158.133 372.898 153.647 354.406 151.45 343.93Z" fill="#BA8B72"/>
<path fill-rule="evenodd" clip-rule="evenodd" d="M100.355 356.43C74.9953 363.072 -17.766 375.08 -24.1317 376.964C-30.68 378.901 -36.4216 364.914 -28.3275 361.884C-15.4485 357.063 20.039 345.924 41.5552 341.378C58.8615 337.722 74.6538 334.738 85.2563 332.991C84.3581 302.128 80.2521 228.062 82.9433 212.066H138.201C135.62 227.406 113.804 339.334 109.75 350.538C108.463 354.538 104.623 356.305 100.355 356.43Z" fill="#D4A181"/>
<path fill-rule="evenodd" clip-rule="evenodd" d="M184.293 463.208C183.085 466.55 182.48 469.051 182.48 470.71C182.48 472.729 182.805 475.674 183.454 479.545C185.713 479.545 206.017 479.545 244.367 479.545C245.95 474.123 245.036 471.195 241.626 470.762C238.215 470.33 235.382 469.94 233.126 469.591L204.815 456.512C204.27 456.26 203.631 456.514 203.388 457.078C203.384 457.088 203.38 457.098 203.376 457.107L201.556 461.682C198.399 463.209 195.834 463.972 193.86 463.972C192.256 463.972 190.041 463.301 187.216 461.958C186.131 461.443 184.849 461.936 184.352 463.06C184.331 463.109 184.311 463.158 184.293 463.208Z" fill="#E4E4E4"/>
<path fill-rule="evenodd" clip-rule="evenodd" d="M83.1224 212.066C107.473 204.846 130.512 204.846 152.241 212.066C159.801 247.809 178.171 261.995 181.401 316.796C144.682 335.703 99.3222 303.311 61.5227 321.749C50.7229 295.959 65.8427 233.85 83.1224 212.066Z" fill="#224666"/>
<path fill-rule="evenodd" clip-rule="evenodd" d="M187.881 167.647L230.522 161.62C239.052 156.703 246.899 153.375 254.063 151.634C256.079 151.573 259.286 152.333 254.508 156.46C249.731 160.588 244.883 165.154 245.734 167.357C246.585 169.56 251.029 168.74 251.765 172.128C252.255 174.387 245.044 174.754 230.131 173.229L195.531 187.444L187.881 167.647ZM53.93 177.875L77.5789 177.967C51.6473 238.439 38.1261 270.102 37.0154 272.954C34.5164 279.372 39.8047 289.147 42.0662 294.399C34.7006 297.815 35.4854 285.166 26.194 289.645C17.7132 293.734 11.2619 301.143 1.46352 294.877C0.258873 294.107 -1.06122 291.207 2.1283 288.941C10.0746 283.294 21.5256 273.412 23.0728 270.159C25.1827 265.724 35.4685 234.962 53.93 177.875Z" fill="#D4A181"/>
<path fill-rule="evenodd" clip-rule="evenodd" d="M118.707 100.15L137.223 101.428C141.784 144.181 166.623 171.186 222.236 162.044L229.625 217.1C177.646 224.062 132.06 202.497 122.717 144.108C120.299 128.994 118.389 113.264 118.707 100.15Z" fill="#AFB9C5"/>
<path fill-rule="evenodd" clip-rule="evenodd" d="M109.572 94.5716L137.626 101.23C137.626 151.233 152.997 183.136 160.881 219.9H85.113C84.0456 232.603 83.3902 245.66 83.0487 259.07H26.3164C39.1723 188.187 66.3066 133.348 107.719 94.5538H109.557L109.572 94.5716Z" fill="#C5CFD6"/>
<path fill-rule="evenodd" clip-rule="evenodd" d="M97.0674 148.564C95.1148 179.723 96.2632 203.501 100.513 219.9H85.1133C87.2276 194.734 90.9584 170.956 97.0674 148.564Z" fill="black" fill-opacity="0.1"/>
<path fill-rule="evenodd" clip-rule="evenodd" d="M268.161 86.5713C261.941 82.2319 256.914 76.2096 255.405 68.3428C251.059 45.6763 282.948 42.2722 291.871 51.8869C300.794 61.5017 307.626 90.1767 300.466 94.2698C297.611 95.9022 290.558 95.714 282.833 93.4601L294.92 122.223L270.273 128.908L268.161 86.5713Z" fill="#915B3C"/>
<path fill-rule="evenodd" clip-rule="evenodd" d="M295.532 56.2976C294.903 54.9083 293.878 53.4538 293.032 52.2074C291.942 50.6005 290.579 49.2548 289.146 48.0267C286.448 45.7146 283.434 43.7833 280.293 42.3539C274.556 39.7431 267.969 39.1263 262.268 41.4533C259.389 42.6282 256.804 44.5609 254.852 47.1404C253.088 49.4711 251.624 52.5945 248.796 53.5576C245.719 54.6053 242.11 52.5869 239.142 51.5406C235.797 50.3611 232.41 49.759 228.956 50.1047C223.17 50.6842 218.466 53.9915 215.866 59.6298C213.098 65.6299 212.045 73.6136 216.431 79.3791C217.247 80.4508 218.154 81.2947 219.293 81.8891C220.338 82.4342 221.838 82.9085 222.506 84.0512C223.215 85.2658 222.583 87.2525 222.477 88.5507C222.326 90.4106 222.305 92.3257 222.968 94.1228C224.058 97.074 226.704 99.4558 229.217 100.908C231.774 102.386 234.568 102.873 237.367 102.689C239.235 102.565 241.1 102.271 242.867 101.647C243.744 101.338 244.467 100.872 245.282 100.437C246.073 100.013 246.605 100.112 247.444 100.386C251.343 101.66 255.139 101.532 258.891 100.168C262.057 99.0162 265.579 97.2091 267.627 94.2462C269.9 90.9556 268.931 87.5312 267.268 84.0428C268.097 84.2114 270.181 83.8897 268.584 82.755C267.952 82.3056 266.984 82.3154 266.279 82.1413C265.459 81.9387 264.596 81.6231 263.869 81.1267C260.933 79.1223 261.792 73.1895 264.381 71.5481C268.227 69.1095 270.753 74.8543 274.155 75.5947C276.111 76.0205 277.588 74.3128 278.547 72.718C279.831 70.5816 280.423 68.0525 280.843 65.528C281.19 63.449 281.471 61.3597 281.836 59.2855C282.007 58.3169 282.741 55.5102 281.791 54.7249C284.632 53.3049 288.31 53.6607 291.333 54.6154C292.583 55.0101 293.597 55.5438 294.487 56.5977C294.677 56.8235 295.147 57.5211 295.489 57.4621C296.126 57.3524 295.69 56.6467 295.532 56.2976Z" fill="#191847"/>
<path fill-rule="evenodd" clip-rule="evenodd" d="M243.188 320.778C268.694 328 290.699 331.611 309.204 331.611C327.709 331.611 344.897 326.05 360.769 314.929C335.81 307.517 315.255 303.81 299.104 303.81C282.953 303.81 264.315 309.466 243.188 320.778Z" fill="#77838E"/>
<path fill-rule="evenodd" clip-rule="evenodd" d="M331.284 342.02C331.038 341.646 330.83 341.239 330.665 340.798C327.256 331.671 272.649 233.209 267.208 215.208H328.689C332.825 228.894 351.442 314.785 354.062 331.922C362.329 358.953 379.349 446.496 381.522 452.561C383.807 458.941 370.946 465.587 367.519 457.744C362.066 445.263 349.073 410.731 343.287 389.646C337.864 369.878 333.447 352.094 331.284 342.02Z" fill="#784931"/>
<path fill-rule="evenodd" clip-rule="evenodd" d="M280.984 354.041C256.019 360.429 164.7 371.977 158.433 373.788C151.987 375.651 146.334 362.2 154.303 359.286C166.981 354.65 201.917 343.937 223.099 339.566C240.136 336.05 255.682 333.181 266.12 331.5C265.236 301.82 261.194 230.592 263.843 215.208H318.242C315.701 229.96 294.224 337.6 290.232 348.375C288.966 352.221 285.186 353.921 280.984 354.041Z" fill="#915B3C"/>
<path fill-rule="evenodd" clip-rule="evenodd" d="M154.881 355.705C151.548 355.077 149.105 354.902 147.552 355.179C145.664 355.516 142.964 356.326 139.453 357.609C139.839 359.827 143.31 379.754 149.866 417.392C155.21 418.04 157.793 416.654 157.614 413.235C157.436 409.815 157.317 406.97 157.257 404.697L164.654 374.727C164.796 374.15 164.45 373.566 163.88 373.422C163.87 373.42 163.86 373.417 163.851 373.415L159.26 372.393C157.292 369.549 156.139 367.159 155.802 365.222C155.528 363.648 155.777 361.362 156.55 358.364C156.846 357.214 156.166 356.038 155.029 355.738C154.98 355.725 154.931 355.714 154.881 355.705Z" fill="#044776"/>
<path fill-rule="evenodd" clip-rule="evenodd" d="M363.617 456.728C362.427 459.942 361.833 462.347 361.833 463.943C361.833 465.884 362.152 468.716 362.791 472.44C365.015 472.44 385.003 472.44 422.757 472.44C424.315 467.225 423.415 464.409 420.058 463.993C416.701 463.577 413.912 463.202 411.691 462.867L383.819 450.289C383.283 450.046 382.654 450.29 382.415 450.833C382.411 450.843 382.407 450.852 382.403 450.861L380.612 455.261C377.504 456.729 374.978 457.463 373.035 457.463C371.456 457.463 369.276 456.817 366.494 455.526C365.427 455.031 364.164 455.505 363.675 456.586C363.654 456.633 363.634 456.68 363.617 456.728Z" fill="#044776"/>
<path fill-rule="evenodd" clip-rule="evenodd" d="M264.02 215.208C287.991 208.265 310.673 208.265 332.064 215.208C339.506 249.582 357.59 263.224 360.77 315.925C324.621 334.108 279.968 302.958 242.756 320.689C232.124 295.887 247.009 236.157 264.02 215.208Z" fill="#224666"/>
<path fill-rule="evenodd" clip-rule="evenodd" d="M320.718 144.303L353.551 117.667C358.329 109.323 363.301 102.617 368.466 97.5508C370.126 96.4734 373.181 95.4554 371.167 101.245C369.153 107.035 367.292 113.217 369.068 114.573C370.844 115.929 374.173 112.998 376.424 115.376C377.925 116.961 372.058 120.935 358.822 127.3L336.679 156.49L320.718 144.303ZM380.598 151.144L395.016 139.417C395.753 130.389 397.674 125.57 400.78 124.96C402.977 123.406 400.708 135.052 405.08 133.297C409.452 131.542 419.072 121.229 421.275 122.581C424.534 124.581 423.356 132.719 421.057 137.074C416.76 145.212 412.597 148.475 401.813 153.701C396.175 156.433 390.348 160.933 384.332 167.199L380.598 151.144Z" fill="#915B3C"/>
<path fill-rule="evenodd" clip-rule="evenodd" d="M302.237 142.974C314.943 140.566 331.443 134.814 347.528 119.942L357.438 134.731C347.131 149.512 331.361 162.96 315.924 165.265C303.76 167.082 294.992 153.364 302.237 142.974Z" fill="#346EA2"/>
<path fill-rule="evenodd" clip-rule="evenodd" d="M323.863 165.666C337.971 166.666 359.932 158.597 389.746 141.461C400.515 156.577 406.214 167.706 406.844 174.85C382.07 194.15 359.802 204.759 340.607 208.623C343.235 220.088 343.762 231.35 340.84 242.247C334.832 264.651 275.217 255.537 256.951 262.686C238.316 225.843 258.47 205.921 254.147 180.991C249.412 153.689 263.746 107.806 266.931 107.238L295.983 102.052C301.218 122.614 313.288 144.15 323.863 165.666Z" fill="#6FAAE0"/>
<path fill-rule="evenodd" clip-rule="evenodd" d="M476.47 82.3197C471.111 77.1173 467.114 70.4082 466.717 62.3609C465.572 39.1742 496.44 40.3022 503.678 51.1405C510.916 61.9789 513.636 91.5009 506.264 94.5625C503.324 95.7834 496.622 94.5968 489.552 91.2581L497.273 121.612L472.878 124.777L476.47 82.3197Z" fill="#E5B091"/>
<path fill-rule="evenodd" clip-rule="evenodd" d="M488.22 39.5723C484.94 39.4322 476.238 40.1725 474.642 40.3799C473.622 40.5123 472.545 40.9021 471.825 39.9905C471.236 39.244 471.258 37.8493 471.001 36.9277C470.703 35.857 470.334 34.8098 469.963 33.7657C468.906 30.7946 467.507 28.0189 465.706 25.4763C462.326 20.706 457.782 17.2157 452.363 15.5447C446.378 13.6998 439.877 13.9432 433.823 15.2604C427.345 16.6699 421.687 19.7213 415.759 22.6712C410.109 25.4822 404.037 27.0881 397.763 26.8874C391.442 26.6853 386.342 23.7401 380.717 21.0464C374.959 18.2887 368.575 16.8248 362.302 18.1657C356.447 19.4175 351.298 22.704 346.81 26.7843C342.611 30.6018 339.288 34.9705 337.792 40.7063C336.182 46.8763 336.933 53.3222 341.306 58.0232C347.643 64.8373 358.011 65.4667 366.426 64.1784C371.294 63.4336 375.977 61.87 380.386 59.5594C386.266 56.4778 391.126 51.9171 396.51 48.0299C399.037 46.2058 401.685 44.6333 404.507 43.382C407.245 42.1673 409.994 41.4165 412.772 42.8941C415.712 44.4573 418.365 46.0233 421.612 46.8192C424.728 47.5829 427.961 47.8166 431.134 47.3784C437.309 46.5259 443.166 43.7001 449.01 41.5579C453.776 39.8112 458.885 38.0238 464 38.4447C466.134 38.6204 469.283 39.1462 470.301 41.3358C457.923 45.4032 454.874 62.5942 459.854 74.2773C462.542 80.583 475.011 86.7442 479.112 82.7136C481.71 80.1601 479.646 77.5183 478.305 75.7715C475.739 72.4262 474.464 67.8666 478.141 64.8284C481.314 62.2081 485.515 66.908 485.583 66.8935C486.515 66.6929 494.085 60.7756 498.865 52.9538C504.434 52.5828 504.825 48.6212 503.139 45.6417C501.453 42.6623 492.752 39.7662 488.22 39.5723Z" fill="#7D305F"/>
<path fill-rule="evenodd" clip-rule="evenodd" d="M481.23 213.264L518.743 349.877L536.388 452.448H554.097L536.419 213.264H481.23Z" fill="#E5B091"/>
<path fill-rule="evenodd" clip-rule="evenodd" d="M464.371 213.264C466.989 284.234 465.956 322.942 465.371 329.39C464.785 335.838 461.459 379.022 438.795 454.612H457.215C487.229 382.096 497.707 338.913 501.149 329.39C504.591 319.868 514.758 281.159 529.601 213.264H464.371Z" fill="#E5B091"/>
<path fill-rule="evenodd" clip-rule="evenodd" d="M480.425 213.264C490.183 260.273 507.059 335.311 531.055 438.378H556.958C558.871 332.589 550.732 262.963 536.638 213.264H480.425Z" fill="#8E9DA1"/>
<path fill-rule="evenodd" clip-rule="evenodd" d="M464.24 213.264C466.804 284.234 460.16 354.152 439.581 439.483H467.217C497.286 368.049 518.838 298.476 533.567 213.264H464.24Z" fill="#C5CFD6"/>
<path fill-rule="evenodd" clip-rule="evenodd" d="M436.17 468.682L437.186 451.365C443.137 453.205 450.59 452.483 459.546 449.201C469.175 456.41 481.297 461.332 495.913 463.968C497.028 464.169 497.777 465.287 497.587 466.466C497.575 466.542 497.559 466.617 497.539 466.692L496.133 471.929H459.546H438.203L436.17 468.682Z" fill="#7D305F"/>
<path fill-rule="evenodd" clip-rule="evenodd" d="M532.435 468.682L533.451 451.365C539.401 453.205 546.854 452.483 555.81 449.201C565.44 456.41 577.562 461.332 592.177 463.968C593.292 464.169 594.042 465.287 593.852 466.466C593.839 466.542 593.823 466.617 593.803 466.692L592.398 471.929H555.81H534.467L532.435 468.682Z" fill="#7D305F"/>
<path fill-rule="evenodd" clip-rule="evenodd" d="M565.801 188.695L602.137 207.666C611.277 208.528 619.083 210.265 625.555 212.878C627.16 213.952 629.282 216.337 623.469 216.94C617.656 217.542 611.568 218.452 611.121 220.667C610.675 222.882 614.558 224.707 613.423 227.795C612.667 229.853 606.851 226.129 595.975 216.623L561.789 208.599L565.801 188.695ZM442.426 212.574L463.516 208.734C457.91 255.555 454.815 280.42 454.231 283.33C452.918 289.877 459.409 298.265 462.356 302.874C456.02 307.408 454.743 295.226 446.778 301.109C439.508 306.478 434.661 314.657 424.515 310.395C423.268 309.871 421.574 307.339 424.193 304.625C430.716 297.865 439.839 286.461 440.767 283.094C442.033 278.503 442.586 254.996 442.426 212.574Z" fill="#E5B091"/>
<path fill-rule="evenodd" clip-rule="evenodd" d="M486.726 107.952L495.183 104.746C532.469 128.256 555.228 182.53 599.906 205.202L592.446 219.486C522.137 223.304 493.534 157.261 486.726 107.952Z" fill="#7EA6D4"/>
<path fill-rule="evenodd" clip-rule="evenodd" d="M468.034 230.858C503.002 224.342 528.723 219.549 545.198 216.479C548.724 215.822 547.162 210.565 546.2 207.945C535.089 177.705 506.489 148.205 499.047 103.599L476.173 104.058C462.984 138.78 463.046 178.492 468.034 230.858Z" fill="#DDE3E9"/>
<path fill-rule="evenodd" clip-rule="evenodd" d="M453.513 139.995C450.116 139.616 447.174 137.802 444.687 134.555C433.963 120.558 435.476 111.469 443.702 107.041C451.927 102.614 460.645 106.952 474.497 104.371C475.251 104.23 475.949 104.152 476.592 104.135L483.63 103.256C515.569 171.134 529.053 217.88 524.083 243.492L463.349 254.81C461.23 264.348 459.031 272.45 456.753 279.117L440.204 282.201C429.767 229.271 434.203 181.869 453.513 139.995Z" fill="#6291C7"/>
<path fill-rule="evenodd" clip-rule="evenodd" d="M470.439 215.571C475.167 232.105 480.316 243.784 485.888 250.61L463.349 254.81C465.821 243.684 468.184 230.604 470.439 215.571Z" fill="black" fill-opacity="0.1"/>
</svg>
