<svg width="660" height="475" viewBox="0 0 660 475" fill="none" xmlns="http://www.w3.org/2000/svg">
<path fill-rule="evenodd" clip-rule="evenodd" d="M126.309 71.5589C121.562 65.5966 118.35 58.2897 118.886 50.102C120.433 26.5112 151.122 31.7009 157.091 43.6075C163.06 55.5141 162.351 85.7163 154.636 87.8443C151.559 88.693 145.005 86.6141 138.334 82.3115L142.521 114.01H117.798L126.309 71.5589Z" fill="#B28B67"/>
<path fill-rule="evenodd" clip-rule="evenodd" d="M168.044 27.1013C167.532 25.1756 166.155 23.5267 164.299 23.0376C163.849 22.9189 163.384 22.871 162.921 22.891C162.755 22.8981 162.708 22.9493 162.631 22.825C162.573 22.7329 162.572 22.5077 162.548 22.3994C162.474 22.0626 162.382 21.7301 162.268 21.4061C161.88 20.3012 161.227 19.3233 160.441 18.4995C158.969 16.9584 156.981 15.8948 154.916 15.7024C153.785 15.5971 152.663 15.7937 151.594 16.1872C151.041 16.3909 150.504 16.6446 149.982 16.925C149.824 17.0094 149.314 17.4229 149.156 17.3961C148.982 17.3666 148.631 16.9028 148.489 16.7864C146.737 15.3474 144.572 14.7817 142.389 14.7986C139.925 14.8184 137.552 14.9502 135.497 16.5576C135.062 16.8979 134.648 17.2706 134.253 17.6629C134.046 17.8694 133.844 18.0837 133.652 18.3069C133.537 18.4415 133.424 18.5792 133.315 18.7206C133.131 18.9606 133.161 19.0394 132.903 18.872C131.914 18.229 130.768 17.9283 129.613 18.0801C128.928 18.1703 128.261 18.3905 127.628 18.6803C127.412 18.779 126.913 19.1726 126.683 19.1765C126.455 19.1802 125.963 18.8154 125.728 18.7226C124.46 18.2216 123.093 18.0981 121.76 18.3296C120.385 18.5685 119.034 19.1556 117.869 19.9669C117.308 20.3572 116.819 20.7896 116.427 21.3699C116.257 21.6205 116.104 21.8855 115.912 22.1178C115.799 22.2538 115.576 22.3934 115.516 22.5656C115.552 22.4625 114.012 21.8272 113.867 21.7865C113.092 21.5702 112.304 21.614 111.546 21.881C110.12 22.3831 108.894 23.5089 107.887 24.6632C107.369 25.2561 106.916 25.9115 106.532 26.6098C106.347 26.9442 106.179 27.2882 106.025 27.6396C105.95 27.8098 105.901 28.0227 105.802 28.176C105.675 28.3736 105.59 28.3773 105.36 28.4635C104.194 28.9009 103.13 29.6412 102.32 30.6416C101.501 31.6538 100.969 32.9002 100.746 34.2127C100.733 34.2901 100.725 34.6105 100.683 34.6523C100.625 34.7099 100.39 34.6845 100.302 34.6956C99.9944 34.7342 99.6892 34.7916 99.3881 34.8679C98.833 35.0085 98.2927 35.2154 97.7816 35.486C95.7893 36.5409 94.3645 38.5184 93.6672 40.7437C92.9356 43.0789 92.9485 45.7544 93.823 48.0461C93.9643 48.4162 94.1323 48.7755 94.3298 49.1154C94.451 49.324 94.4901 49.3245 94.4114 49.5435C94.3236 49.787 94.1634 50.0236 94.0592 50.2616C93.7193 51.0382 93.4817 51.8618 93.3316 52.703C93.0854 54.0829 92.9633 55.533 93.2063 56.9234C93.3191 57.569 93.5156 58.2001 93.8154 58.7752C93.9683 59.0683 94.1471 59.3464 94.3491 59.6036C94.454 59.7372 94.5653 59.8647 94.6818 59.9869C94.7484 60.0567 94.8358 60.1178 94.8924 60.1958C95.0307 60.3859 95.0597 60.2296 94.9884 60.5088C94.8887 60.899 94.6627 61.2841 94.5243 61.6639C94.3817 62.0552 94.2528 62.452 94.1349 62.8526C93.8962 63.6638 93.6943 64.4898 93.568 65.3299C93.3256 66.9429 93.3682 68.6616 94.0811 70.142C94.386 70.7752 94.8233 71.3307 95.3538 71.7628C95.6134 71.9742 95.8946 72.1564 96.1896 72.306C96.3412 72.383 96.5347 72.416 96.6038 72.5729C96.6783 72.7416 96.5678 73.0766 96.5426 73.2652C96.3234 74.9057 96.2134 76.6283 96.6692 78.236C97.0889 79.7168 98.0131 81.0242 99.213 81.8898C101.541 83.569 104.678 83.4743 107.124 82.13C107.762 81.7796 108.358 81.3445 108.89 80.8313C110.245 82.783 113.033 82.7213 115.013 82.1651C117.48 81.4723 119.46 79.6367 120.601 77.2248C122.16 79.2564 125.433 78.5972 126.515 76.3933C126.779 75.8539 126.936 75.2594 127.014 74.6578C127.054 74.3414 127.028 74.0223 127.059 73.7085C127.098 73.3086 127.347 72.92 127.491 72.5331C127.77 71.7802 127.944 71.0025 127.951 70.1904C127.955 69.7664 127.905 69.3532 127.867 68.9325C127.833 68.5539 127.932 68.2012 127.987 67.8275C127.355 67.9389 126.584 67.7564 125.988 67.56C125.403 67.3674 124.855 66.86 124.442 66.3966C123.483 65.3205 122.898 63.91 122.497 62.506C121.618 59.4247 121.978 55.7277 124.875 54.0366C126.224 53.2488 130.266 53.2514 131.873 53.6408C133.563 54.0502 135.478 58.0399 135.572 58.4148C135.631 58.6469 135.601 58.9342 135.801 59.0888C136.238 59.4289 136.961 58.8388 137.284 58.5476C137.841 58.0449 138.238 57.3761 138.583 56.6983C139.333 55.2214 139.938 53.6377 140.365 52.0209C140.694 50.7744 140.905 49.4891 141.335 48.2744C141.764 47.0657 142.439 45.9854 143.489 45.3007C144.631 44.5558 145.94 44.1635 147.194 43.6954C148.437 43.2315 149.659 42.6645 150.622 41.6802C150.834 41.4638 151.04 41.2338 151.21 40.9789C151.345 40.7778 151.478 40.3926 151.683 40.2651C152.002 40.0666 152.467 40.5827 152.743 40.77C154.103 41.6945 155.238 42.9838 156.153 44.3923C157.063 45.7931 157.81 47.141 158.417 48.7052C158.867 49.8653 159.148 51.351 159.94 52.3018C160.293 52.7263 162.921 52.9831 163.772 52.6125C164.623 52.2419 165.577 51.2795 165.862 50.6764C166.155 50.0591 166.225 49.381 166.1 48.7052C166.026 48.3076 165.876 47.9362 165.794 47.5458C165.725 47.2177 165.662 46.9077 165.513 46.6072C165.23 46.0377 164.747 45.6284 164.165 45.4573C164.771 44.8591 165.273 44.1435 165.621 43.3435C165.982 42.5125 166.288 41.5018 166.375 40.5896C166.446 39.8487 166.337 39.0811 165.958 38.4444C165.56 37.7765 164.856 37.3408 164.246 36.9242C165.177 36.1448 165.974 35.1969 166.629 34.1475C167.903 32.1067 168.691 29.5343 168.044 27.1013Z" fill="#191847"/>
<path fill-rule="evenodd" clip-rule="evenodd" d="M109.634 205.233L159.165 345.481L193.882 448.852H213.678L165.956 205.233L109.634 205.233Z" fill="#3C4E5E"/>
<path fill-rule="evenodd" clip-rule="evenodd" d="M97.3924 205.233C96.854 253.355 97.2432 318.144 95.9888 321.143C95.1525 323.143 69.1399 345.928 17.9512 389.499L28.1547 408.065C88.9276 366.127 120.868 342.364 123.975 336.777C128.635 328.396 152.05 251.27 164.232 205.233H97.3924Z" fill="#2D4357"/>
<path fill-rule="evenodd" clip-rule="evenodd" d="M0.000407684 401.993L17.2344 387.957L31.1399 405.691C32.2095 419.06 36.3458 434.053 43.5489 450.67L40.3924 453.505L15.2302 421.415L8.20032 409.02L6.62205 410.438L0.000407684 401.993Z" fill="#191847"/>
<path fill-rule="evenodd" clip-rule="evenodd" d="M192.046 468.695L193.076 445.545H214.709C224.967 453.262 238.359 459.508 254.885 464.285V468.695H215.739L202.347 466.49V468.695H192.046Z" fill="#191847"/>
<path fill-rule="evenodd" clip-rule="evenodd" d="M196.95 191.288L229.81 217.109C238.722 219.683 246.168 222.885 252.147 226.715C253.56 228.092 255.267 230.881 249.409 230.399C243.551 229.917 237.369 229.692 236.561 231.83C235.753 233.968 239.298 236.525 237.664 239.41C236.575 241.333 231.429 236.511 222.226 224.943L189.686 210.503L196.95 191.288ZM70.7848 192.18L92.3121 192.27C79.02 238.187 71.8442 262.55 70.7848 265.36C68.4011 271.681 73.4453 281.309 75.6024 286.483C68.5768 289.847 69.3254 277.388 60.4627 281.8C52.3733 285.828 46.2197 293.125 36.8736 286.954C35.7245 286.195 34.4654 283.338 37.5077 281.106C45.0872 275.545 56.0098 265.811 57.4856 262.607C59.4982 258.238 63.9312 234.762 70.7848 192.18Z" fill="#B28B67"/>
<path fill-rule="evenodd" clip-rule="evenodd" d="M131.962 95.5167L140.87 93.8817C173.92 124.434 187.495 183.128 228.007 214.221L218.256 227.155C147.976 217.843 130.556 146.25 131.962 95.5167Z" fill="#27568E"/>
<path fill-rule="evenodd" clip-rule="evenodd" d="M93.1309 215.307C128.848 215.307 155.12 215.307 171.949 215.307C175.55 215.307 174.872 209.742 174.351 206.934C168.342 174.524 144.887 139.588 144.887 93.4538L122.152 89.6389C103.347 122.002 96.8443 161.848 93.1309 215.307Z" fill="#DDE3E9"/>
<path fill-rule="evenodd" clip-rule="evenodd" d="M93.7642 121.451C90.4623 120.435 87.8475 118.066 85.9199 114.344C77.6103 98.2991 80.6112 89.4652 89.4916 86.5614C98.3719 83.6577 106.291 89.6389 120.44 89.6389C121.21 89.6389 121.914 89.6905 122.555 89.7938L129.672 90.2284C150.092 164.285 155.723 213.694 146.567 238.456H84.531C80.8555 247.628 77.3383 255.344 73.9794 261.606H57.0758C55.485 206.562 67.7144 159.844 93.7642 121.451Z" fill="#2561A7"/>
<path fill-rule="evenodd" clip-rule="evenodd" d="M98.04 200.423C99.991 217.891 103.162 230.569 107.553 238.456H84.5312C88.8187 227.758 93.3216 215.08 98.04 200.423Z" fill="black" fill-opacity="0.1"/>
<path fill-rule="evenodd" clip-rule="evenodd" d="M296.153 64.2043C293.01 57.1304 291.675 49.1827 294.173 41.4227C301.373 19.0641 329.761 32.5764 332.647 45.7306C335.533 58.8849 327.543 87.8615 319.576 87.7802C316.399 87.7478 310.571 83.9245 305.168 77.9209L301.546 109.699L277.665 102.852L296.153 64.2043Z" fill="#D4A181"/>
<path fill-rule="evenodd" clip-rule="evenodd" d="M304.82 64.9719C300.336 70.2056 295.093 73.6119 291.001 72.4387C283.229 70.2102 280.487 57.5064 283.481 45.5513C283.586 45.1312 283.698 44.7162 283.817 44.3065C274.084 47.9863 264.768 58.0695 253.89 54.9504C239.09 50.7068 241.211 17.0779 261.889 23.0067C275.951 27.0388 282.319 31.2161 287.468 36.1697C289.531 32.9599 292.071 30.4919 294.785 29.038C295.471 28.5539 296.432 28.1779 297.616 27.9135C298.347 27.723 299.083 27.6081 299.819 27.5737C303.768 27.1908 309.225 27.6867 315.096 29.1372C316.193 29.408 317.262 29.702 318.299 30.0154C319.785 24.155 325.422 20.6814 330.907 22.2541C336.403 23.8299 339.664 29.8745 338.191 35.7551C336.767 41.4423 331.438 44.8934 326.118 43.6892C322.869 43.8195 318.832 43.4416 314.481 42.5225C314.477 44.3118 314.228 46.274 313.691 48.4182C313.217 50.3116 312.519 52.2636 311.649 54.1993C311.017 52.7542 309.97 51.6291 308.711 51.2683C305.191 50.259 301.965 52.6551 301.141 55.9452C300.096 60.1208 301.592 63.7874 304.82 64.9719Z" fill="#191847"/>
<path fill-rule="evenodd" clip-rule="evenodd" d="M261.117 200.302L337.664 337.243L395.051 453.016H407.412L311.258 200.302L261.117 200.302Z" fill="#D4A181"/>
<path fill-rule="evenodd" clip-rule="evenodd" d="M387.493 447.671C386.341 450.963 385.765 453.427 385.765 455.061C385.765 457.049 386.074 459.95 386.693 463.764C388.848 463.764 408.215 463.764 444.795 463.764C446.305 458.422 445.433 455.538 442.18 455.113C438.927 454.687 436.225 454.302 434.073 453.959L407.068 441.076C406.548 440.828 405.939 441.078 405.708 441.634C405.704 441.643 405.7 441.653 405.696 441.663L403.96 446.169C400.949 447.672 398.502 448.424 396.619 448.424C395.089 448.424 392.977 447.763 390.281 446.441C389.247 445.933 388.024 446.419 387.55 447.526C387.529 447.574 387.511 447.622 387.493 447.671Z" fill="#784A66"/>
<path fill-rule="evenodd" clip-rule="evenodd" d="M379.113 434.477L402.951 426.761C392.507 393.351 379.706 356.584 364.549 316.461C349.392 276.338 333.114 237.618 315.715 200.302H248.389C267.733 247.505 288.24 290.396 309.911 328.974C331.581 367.551 354.649 402.719 379.113 434.477Z" fill="#394B70"/>
<path fill-rule="evenodd" clip-rule="evenodd" d="M256.087 200.302C248.862 248.424 234.928 309.906 233.613 311.803C232.736 313.068 201.176 324.385 138.932 345.753L141.602 357.417C215.828 345.957 254.939 337.066 258.934 330.743C264.927 321.26 294.853 246.339 306.443 200.302H256.087Z" fill="#D4A181"/>
<path fill-rule="evenodd" clip-rule="evenodd" d="M160.812 335.671L165.515 354.457C221.031 359.667 255.048 355.902 267.564 343.162C280.079 330.422 294.344 282.801 310.357 200.302H246.158C236.012 267.858 230.34 303.054 229.142 305.89C227.943 308.726 205.166 318.653 160.812 335.671Z" fill="#162E5E"/>
<path fill-rule="evenodd" clip-rule="evenodd" d="M141.98 340.894C138.75 340.251 136.383 340.072 134.879 340.356C133.05 340.701 130.434 341.531 127.032 342.845C127.406 345.116 130.769 365.526 137.121 404.075C142.299 404.739 144.801 403.32 144.628 399.818C144.455 396.315 144.34 393.401 144.282 391.074L151.449 360.377C151.587 359.787 151.251 359.188 150.699 359.041C150.69 359.038 150.68 359.036 150.671 359.034L146.223 357.987C144.316 355.074 143.199 352.626 142.872 350.642C142.607 349.03 142.848 346.689 143.597 343.619C143.884 342.44 143.225 341.236 142.124 340.929C142.076 340.915 142.028 340.904 141.98 340.894Z" fill="#784A66"/>
<path fill-rule="evenodd" clip-rule="evenodd" d="M352.102 191.526L380.272 223.06C388.631 227.251 395.445 231.787 400.712 236.67C401.879 238.289 403.108 241.353 397.417 239.79C391.727 238.227 385.675 236.856 384.532 238.812C383.389 240.767 386.465 243.944 384.388 246.481C383.003 248.173 378.718 242.468 371.532 229.365L341.83 209.099L352.102 191.526ZM207.404 153.302L224.7 160.135C196.708 200.256 181.766 221.442 179.872 223.694C175.612 228.762 177.275 239.655 177.648 245.306C169.971 245.896 174.656 234.463 164.918 235.365C156.029 236.189 147.914 240.794 141.104 231.574C140.267 230.441 139.997 227.296 143.569 226.312C152.469 223.859 165.844 218.71 168.255 216.24C171.543 212.871 184.592 191.892 207.404 153.302Z" fill="#D4A181"/>
<path fill-rule="evenodd" clip-rule="evenodd" d="M359.185 195.712C363.401 196.178 367.808 197.771 372.375 200.438C374.623 201.75 375.451 204.763 374.224 207.168C373.512 208.565 372.263 209.449 370.902 209.688C371.711 210.589 372.53 211.487 373.357 212.383L362.255 228.676C330.921 203.865 300.909 183.953 291.182 150.916C287.917 139.828 295.273 105.645 296.87 93.0061L308.504 90.2918C318.116 126.6 333.296 162.559 359.185 195.712Z" fill="#B4BEC4"/>
<path fill-rule="evenodd" clip-rule="evenodd" d="M239.53 202.498C270.806 212.265 295.91 217.002 314.842 216.708C317.187 216.672 318.812 206.186 318.231 203.129C309.18 155.522 303.771 120.9 308.866 89.9807C305.582 91.094 300.279 90.353 292.955 87.7577C267.503 115.809 252.192 150.617 239.53 202.498Z" fill="#191847"/>
<path fill-rule="evenodd" clip-rule="evenodd" d="M232.736 206.643C231.833 205.348 231.537 203.606 232.093 201.974L233.15 198.867C233.866 196.761 235.776 195.489 237.765 195.609C238.374 194.045 238.934 192.482 239.441 190.922C243.724 177.743 242.417 163.781 244.734 150.749C225.966 162.565 207.094 185.522 188.118 219.618L169.952 209.97C171.162 207.201 172.392 204.473 173.642 201.786C171.652 200.024 170.084 193.375 172.113 192.695C174.21 191.992 176.368 191.627 178.584 191.59C205.482 138.28 241.036 102.29 285.244 83.6177L288.773 84.2837L296.781 85.7947C285.463 133.225 315.09 247.028 284.029 333.585C252.73 335.099 213.429 304.598 168.635 314.59C176.14 278.788 214.318 242.27 232.736 206.643Z" fill="#C5CFD6"/>
<path fill-rule="evenodd" clip-rule="evenodd" d="M289.254 85.494L281.182 101.73L289.595 116.63L278.397 124.98L294.485 171.552L273.247 124.095L284.289 115.629L276.813 102.454L289.254 85.494Z" fill="black" fill-opacity="0.1"/>
<path fill-rule="evenodd" clip-rule="evenodd" d="M285.043 186.561C282.802 186.138 281.305 183.851 281.7 181.453C282.096 179.054 284.233 177.453 286.474 177.876C288.715 178.299 290.212 180.586 289.816 182.984C289.421 185.382 287.284 186.984 285.043 186.561ZM286.001 212.487C283.76 212.064 282.263 209.777 282.659 207.379C283.054 204.98 285.191 203.379 287.432 203.802C289.673 204.225 291.17 206.512 290.775 208.91C290.379 211.308 288.242 212.91 286.001 212.487ZM282.901 237.647C280.66 237.224 279.164 234.937 279.559 232.539C279.954 230.141 282.091 228.539 284.332 228.962C286.574 229.385 288.07 231.672 287.675 234.07C287.28 236.469 285.142 238.07 282.901 237.647Z" fill="#B088A1"/>
<path fill-rule="evenodd" clip-rule="evenodd" d="M429.978 66.3681C425.231 60.4058 422.019 53.0989 422.555 44.9112C424.102 21.3204 454.79 26.5101 460.76 38.4167C466.729 50.3233 466.02 80.5255 458.305 82.6535C455.228 83.5022 448.674 81.4233 442.003 77.1207L446.19 108.82H421.467L429.978 66.3681Z" fill="#B28B67"/>
<path d="M457.486 34.3479C458.037 34.546 457.486 32.0104 456.169 31.0831C452.13 28.2395 440.107 24.0309 431.886 25.8572C426.378 27.0807 419.509 30.1517 415.11 34.0665C411.144 37.5957 407.536 43.8174 406.132 49.2835C404.657 55.023 404.1 63.009 406.132 68.0165C408.551 73.98 417.12 80.4071 417.346 81.2607C417.605 82.2347 416.592 86.0401 415.851 90.0498C415.11 94.0595 415.447 104.269 415.851 105.934C416.496 108.595 419.957 109.903 421.467 110.096C429.811 111.16 435.86 122.245 438.378 125.081C449.583 137.12 457.404 142.355 461.839 140.788C463.006 140.375 461.257 125.416 460.089 119.005C458.922 112.593 447.473 101.152 446.74 97.3813C446.308 95.1601 446.236 91.2935 446.19 91.1172C445.11 83.1513 445.296 82.5038 443.721 79.2578C442.146 76.0117 440.925 75.8212 441.304 74.8757C443.153 70.2556 449.102 56.1196 450.452 51.4972C452.06 45.988 451.3 47.7976 452.958 42.3071C453.692 39.8758 454.627 33.3196 457.486 34.3479Z" fill="#784A66"/>
<mask id="mask0_561_21827" style="mask-type:luminance" maskUnits="userSpaceOnUse" x="404" y="25" width="59" height="117">
<path d="M457.486 34.3479C458.037 34.546 457.486 32.0104 456.169 31.0831C452.13 28.2395 440.107 24.0309 431.886 25.8572C426.378 27.0807 419.509 30.1517 415.11 34.0665C411.144 37.5957 407.536 43.8174 406.132 49.2835C404.657 55.023 404.1 63.009 406.132 68.0165C408.551 73.98 417.12 80.4071 417.346 81.2607C417.605 82.2347 416.592 86.0401 415.851 90.0498C415.11 94.0595 415.447 104.269 415.851 105.934C416.496 108.595 419.957 109.903 421.467 110.096C429.811 111.16 435.86 122.245 438.378 125.081C449.583 137.12 457.404 142.355 461.839 140.788C463.006 140.375 461.257 125.416 460.089 119.005C458.922 112.593 447.473 101.152 446.74 97.3813C446.308 95.1601 446.236 91.2935 446.19 91.1172C445.11 83.1513 445.296 82.5038 443.721 79.2578C442.146 76.0117 440.925 75.8212 441.304 74.8757C443.153 70.2556 449.102 56.1196 450.452 51.4972C452.06 45.988 451.3 47.7976 452.958 42.3071C453.692 39.8758 454.627 33.3196 457.486 34.3479Z" fill="white"/>
</mask>
<g mask="url(#mask0_561_21827)">
<path fill-rule="evenodd" clip-rule="evenodd" d="M436.214 34.9619C434.407 41.0975 434.019 44.3727 434.407 52.7562H433.521C431.865 44.8447 433.339 37.3969 435.1 34.9619H436.214ZM411.971 50.7964C415.339 59.5404 416.874 64.7038 426.278 71.7795L425.552 72.3236C416.216 66.6621 413.498 59.9088 411.263 51.1607L411.971 50.7964ZM425.807 41.8982C427.337 54.3094 427.783 61.3986 435.751 74.9747L434.903 75.252C426.703 63.4314 425.403 53.7836 425.016 41.9664L425.807 41.8982ZM417.006 78.7653L417.731 77.8218C427.628 81.1391 426.526 87.9876 438.991 94.9234L437.949 95.5988C427.034 90.7785 424.483 80.4398 417.006 78.7653Z" fill="black" fill-opacity="0.2"/>
</g>
<path fill-rule="evenodd" clip-rule="evenodd" d="M401.605 200.042C403.462 227.17 523.123 307.04 523.821 309.281C524.132 310.277 511.716 341.761 486.575 403.732L497.036 408.082C535.598 342.45 553.888 306.137 551.908 299.143C549.072 289.131 518.124 256.193 459.064 200.33L401.605 200.042Z" fill="#B28B67"/>
<path fill-rule="evenodd" clip-rule="evenodd" d="M489.328 389.737L506.406 396.389C542.417 352.91 556.533 317.035 553.959 298.757C552.243 286.571 521.402 253.688 461.436 200.108L400.38 200.108C402.463 262.934 513.374 309.52 514.857 312.197C516.341 314.875 501.742 341.096 489.328 389.737Z" fill="#335B7F"/>
<path fill-rule="evenodd" clip-rule="evenodd" d="M482.727 401.596C480.592 404.267 479.263 406.371 478.741 407.907C478.105 409.775 477.469 412.614 476.832 416.424C478.857 417.213 497.056 424.301 531.43 437.689C534.556 433.223 534.658 430.194 531.738 428.603C528.817 427.012 526.4 425.662 524.488 424.552L503.229 402.562C502.82 402.139 502.168 402.151 501.773 402.589C501.766 402.596 501.759 402.604 501.753 402.611L498.681 406.21C495.371 406.521 492.831 406.332 491.062 405.643C489.624 405.083 487.85 403.688 485.74 401.459C484.93 400.604 483.626 400.613 482.827 401.48C482.792 401.517 482.759 401.556 482.727 401.596Z" fill="#E4E4E4"/>
<path fill-rule="evenodd" clip-rule="evenodd" d="M415.363 200.042L362.057 336.984L309.666 452.756H322.027L457.263 200.042H415.363Z" fill="#997659"/>
<path fill-rule="evenodd" clip-rule="evenodd" d="M308.927 447.412C307.774 450.704 307.198 453.167 307.198 454.802C307.198 456.79 307.508 459.69 308.127 463.504C310.282 463.504 329.649 463.504 366.229 463.504C367.739 458.163 366.867 455.279 363.614 454.853C360.361 454.427 357.659 454.043 355.507 453.699L328.502 440.816C327.982 440.569 327.373 440.818 327.141 441.374C327.137 441.384 327.133 441.394 327.13 441.403L325.394 445.909C322.382 447.413 319.935 448.164 318.053 448.164C316.523 448.164 314.41 447.503 311.715 446.181C310.681 445.674 309.458 446.16 308.983 447.267C308.963 447.314 308.944 447.363 308.927 447.412Z" fill="#E4E4E4"/>
<path fill-rule="evenodd" clip-rule="evenodd" d="M314.397 428.706L341.863 434.218C363.1 400.808 451.975 263.815 461.72 200.042H400.575C368.033 246.143 334.64 394.743 314.397 428.706Z" fill="#224666"/>
<path fill-rule="evenodd" clip-rule="evenodd" d="M501.314 87.0285L540.36 74.4855C547.644 68.4176 554.515 63.9811 560.972 61.1759C562.85 60.7977 565.959 61.0174 562.074 65.7335C558.189 70.4496 554.3 75.5972 555.41 77.5747C556.519 79.5522 560.561 78.0615 561.73 81.194C562.51 83.2823 555.814 84.778 541.642 85.681L511.283 104.8L501.314 87.0285ZM497.864 160.696L530.723 186.517C539.636 189.09 547.082 192.292 553.061 196.122C554.474 197.499 556.181 200.289 550.323 199.806C544.465 199.324 538.283 199.099 537.475 201.237C536.667 203.375 540.211 205.932 538.578 208.817C537.488 210.74 532.342 205.918 523.139 194.35L490.6 179.911L497.864 160.696Z" fill="#B28B67"/>
<path fill-rule="evenodd" clip-rule="evenodd" d="M446.824 91.1578C464.719 126.862 490.595 154.233 528.108 182.685L513.904 199.823C472.019 183.167 449.913 173.117 439.057 139.383C436.333 130.917 434.428 103.928 432.795 89.727L446.824 91.1578Z" fill="#346EA2"/>
<path fill-rule="evenodd" clip-rule="evenodd" d="M396.8 210.116H476.121C458.153 151.477 448.975 111.231 448.585 89.3773C448.566 88.2632 446.643 86.3 445.792 86.5571C439.571 88.4372 432.914 87.7342 425.821 84.4481C407.016 116.811 400.513 156.657 396.8 210.116Z" fill="#B7B7B7"/>
<path fill-rule="evenodd" clip-rule="evenodd" d="M432.589 84.5004C455.327 84.6996 492.216 89.1427 534.759 74.527L538.96 96.9857C506.805 119.115 474.247 136.258 445.717 133.823C458.106 190.69 457.535 237.241 430.184 237.241C417.123 237.241 403.025 237.241 387.89 237.241C381.173 188.933 398.827 121.954 415.194 88.1703C415.819 86.8802 417.15 84.4481 420.284 84.4481C423.015 84.4481 427.111 84.4481 432.573 84.4481C432.579 84.4656 432.584 84.483 432.589 84.5004Z" fill="#3485D1"/>
<path fill-rule="evenodd" clip-rule="evenodd" d="M587.018 65.1407C580.771 60.5773 575.728 54.2355 574.228 45.9393C569.906 22.0356 601.987 18.3681 610.941 28.4908C619.894 38.6135 626.703 68.8506 619.493 73.1861C616.617 74.9151 609.524 74.7333 601.76 72.3738L613.853 102.691L589.049 109.803L587.018 65.1407Z" fill="#B28B67"/>
<path fill-rule="evenodd" clip-rule="evenodd" d="M595.629 42.58C600.091 56.3357 604.359 62.6295 608.432 61.4615C614.543 59.7092 618.698 54.108 621.379 53.3391C623.334 52.7787 623.547 55.4981 622.733 57.7931C622.061 59.6866 617.239 62.7088 617.855 65.1691C618.471 67.6294 622.107 64.5467 622.473 66.0059C623.077 68.4195 624.936 72.7503 620.986 73.8828C616.989 75.0289 605.142 76.7701 601.602 71.0411C599.318 67.3437 596.391 59.164 592.822 46.5019C592.572 46.5408 592.322 46.5959 592.071 46.6676C588.647 47.6496 586.608 51.3903 587.517 55.0228C587.979 56.8668 589.112 58.3284 590.563 59.1921C589.666 61.7516 588.62 64.4567 587.357 67.3005C579.332 64.8804 570.966 53.4582 574.632 39.13C574.983 32.5252 578.406 28.0695 583.031 25.1303C586.632 22.1711 590.788 20.7625 594.608 20.8221C601.726 19.4597 608.504 19.9286 610.6 20.7603C612.35 27.7487 611.592 30.1882 600.642 33.1322C598.338 35.4013 596.926 38.5764 595.629 42.58Z" fill="#191847"/>
<path fill-rule="evenodd" clip-rule="evenodd" d="M601.126 202.23L653.642 343.918L688.865 463.703H702.774L648.926 202.23L601.126 202.23Z" fill="#997659"/>
<path fill-rule="evenodd" clip-rule="evenodd" d="M590.551 202.23C589.992 252.02 581.836 319.054 580.533 322.158C579.665 324.227 549.677 350.539 490.571 401.095L500.151 412.023C569.891 368.678 606.374 344.114 609.601 338.333C614.442 329.662 630.202 249.863 642.855 202.23H590.551Z" fill="#B28B67"/>
<path fill-rule="evenodd" clip-rule="evenodd" d="M489.227 397.425C486.009 398.642 483.793 399.796 482.578 400.887C481.1 402.214 479.15 404.414 476.727 407.488C478.166 409.322 491.096 425.812 515.519 456.958C520.498 454.677 522.06 452.01 520.205 448.956C518.35 445.902 516.832 443.344 515.65 441.283L507.2 409.688C507.037 409.08 506.445 408.729 505.877 408.903C505.867 408.906 505.857 408.909 505.848 408.912L501.338 410.442C498.21 408.882 496.017 407.3 494.76 405.697C493.739 404.395 492.82 402.155 492.003 398.977C491.69 397.758 490.512 397.041 489.373 397.376C489.323 397.391 489.275 397.407 489.227 397.425Z" fill="#E4E4E4"/>
<path fill-rule="evenodd" clip-rule="evenodd" d="M636.435 451.365L702.565 443.715L653.555 202.23H594.325L636.435 451.365Z" fill="#966A84"/>
<path fill-rule="evenodd" clip-rule="evenodd" d="M504.25 383.465L547.627 438.195C593.315 385.004 619.951 350.297 627.536 334.074C635.12 317.85 641.938 273.902 647.99 202.23H581.308C578.002 265.284 575.774 298.279 574.623 301.213C573.472 304.147 550.015 331.564 504.25 383.465Z" fill="#A17690"/>
<path fill-rule="evenodd" clip-rule="evenodd" d="M683.034 175.958L720.976 195.898C730.524 196.797 738.677 198.619 745.436 201.364C747.112 202.493 749.326 205.002 743.253 205.642C737.18 206.282 730.819 207.246 730.351 209.578C729.883 211.911 733.938 213.829 732.75 217.081C731.959 219.249 725.886 215.333 714.532 205.335L678.826 196.918L683.034 175.958ZM554.13 201.216L576.165 197.153C570.27 246.455 567.016 272.638 566.404 275.703C565.026 282.597 571.8 291.423 574.874 296.273C568.252 301.053 566.928 288.227 558.603 294.429C551.004 300.089 545.933 308.704 535.338 304.227C534.035 303.676 532.268 301.012 535.006 298.152C541.826 291.029 551.366 279.013 552.338 275.467C553.664 270.632 554.261 245.881 554.13 201.216Z" fill="#B28B67"/>
<path fill-rule="evenodd" clip-rule="evenodd" d="M600.495 91.0198L609.333 87.6364C648.264 112.355 671.994 169.477 718.648 193.306L710.843 208.352C637.392 212.439 607.566 142.93 600.495 91.0198Z" fill="#27568E"/>
<path fill-rule="evenodd" clip-rule="evenodd" d="M580.866 220.443C617.4 213.55 644.274 208.479 661.488 205.231C665.172 204.536 663.544 199.002 662.541 196.245C650.959 164.416 621.107 133.384 613.369 86.4258L589.474 86.9307C575.667 123.501 575.698 165.313 580.866 220.443Z" fill="#DDE3E9"/>
<path fill-rule="evenodd" clip-rule="evenodd" d="M565.773 124.789C562.225 124.393 559.153 122.486 556.557 119.07C545.366 104.342 546.954 94.7714 555.551 90.1018C564.147 85.4323 573.251 89.9918 587.724 87.261C588.511 87.1125 589.241 87.029 589.913 87.0105L597.266 86.0792C630.574 157.517 644.621 206.721 639.408 233.692L575.952 245.666C573.731 255.71 571.427 264.243 569.042 271.265L551.751 274.527C540.892 218.808 545.566 168.895 565.773 124.789Z" fill="#2561A7"/>
<path fill-rule="evenodd" clip-rule="evenodd" d="M583.39 204.346C588.316 221.749 593.686 234.042 599.5 241.222L575.951 245.666C578.543 233.949 581.022 220.176 583.39 204.346Z" fill="black" fill-opacity="0.1"/>
<path fill-rule="evenodd" clip-rule="evenodd" d="M744.066 320.267C720.872 326.541 636.031 337.881 630.208 339.66C624.219 341.49 618.968 328.28 626.371 325.418C638.15 320.865 670.608 310.344 690.287 306.051C706.116 302.598 720.559 299.78 730.257 298.13C729.435 268.981 725.68 199.028 728.141 183.92H778.681C776.32 198.408 756.367 304.121 752.659 314.702C751.482 318.48 747.97 320.149 744.066 320.267Z" fill="#D4A181"/>
<path fill-rule="evenodd" clip-rule="evenodd" d="M626.909 321.901C623.812 321.284 621.542 321.112 620.1 321.384C618.345 321.715 615.837 322.511 612.575 323.771C612.934 325.949 616.158 345.52 622.249 382.483C627.214 383.119 629.614 381.758 629.448 378.4C629.282 375.042 629.171 372.248 629.116 370.016L635.988 340.583C636.12 340.016 635.798 339.442 635.269 339.301C635.26 339.298 635.251 339.296 635.242 339.294L630.977 338.29C629.148 335.497 628.077 333.15 627.764 331.247C627.509 329.702 627.741 327.457 628.459 324.513C628.734 323.383 628.102 322.228 627.046 321.934C627.001 321.921 626.955 321.91 626.909 321.901Z" fill="#444242"/>
<path fill-rule="evenodd" clip-rule="evenodd" d="M824.118 141.968L863.118 136.275C870.92 131.632 878.097 128.488 884.649 126.844C886.493 126.787 889.427 127.504 885.057 131.402C880.687 135.301 876.253 139.613 877.032 141.694C877.81 143.774 881.874 143 882.547 146.2C882.996 148.334 876.401 148.68 862.761 147.24L831.115 160.666L824.118 141.968ZM701.604 151.628L723.234 151.715C699.516 208.829 687.15 238.733 686.134 241.427C683.848 247.489 688.685 256.72 690.753 261.681C684.017 264.907 684.735 252.96 676.236 257.191C668.48 261.053 662.579 268.05 653.618 262.133C652.516 261.405 651.308 258.666 654.226 256.525C661.493 251.193 671.967 241.859 673.382 238.787C675.312 234.598 684.719 205.545 701.604 151.628Z" fill="#D4A181"/>
</svg>
