<svg width="14" height="15" viewBox="0 0 14 15" fill="none" xmlns="http://www.w3.org/2000/svg">
<path d="M7.05496 9.97925C6.43189 9.97925 5.83434 9.71805 5.39377 9.25312C4.95319 8.78818 4.70568 8.1576 4.70568 7.50008C4.70568 6.84257 4.95319 6.21198 5.39377 5.74705C5.83434 5.28211 6.43189 5.02092 7.05496 5.02092C7.67803 5.02092 8.27558 5.28211 8.71615 5.74705C9.15673 6.21198 9.40424 6.84257 9.40424 7.50008C9.40424 8.1576 9.15673 8.78818 8.71615 9.25312C8.27558 9.71805 7.67803 9.97925 7.05496 9.97925ZM12.0421 8.18717C12.069 7.9605 12.0891 7.73383 12.0891 7.50008C12.0891 7.26633 12.069 7.03258 12.0421 6.79175L13.4584 5.63717C13.586 5.53092 13.6195 5.33967 13.539 5.18383L12.1965 2.733C12.116 2.57717 11.9347 2.51342 11.7871 2.57717L10.1157 3.2855C9.7667 3.00925 9.40424 2.76842 8.98137 2.59133L8.73302 0.714249C8.71938 0.63082 8.6782 0.555177 8.61677 0.500723C8.55534 0.44627 8.47763 0.416522 8.39741 0.416749H5.71251C5.54471 0.416749 5.40375 0.544249 5.3769 0.714249L5.12855 2.59133C4.70568 2.76842 4.34322 3.00925 3.99419 3.2855L2.32284 2.57717C2.17517 2.51342 1.99394 2.57717 1.9134 2.733L0.570951 5.18383C0.483692 5.33967 0.523965 5.53092 0.651498 5.63717L2.06778 6.79175C2.04093 7.03258 2.02079 7.26633 2.02079 7.50008C2.02079 7.73383 2.04093 7.9605 2.06778 8.18717L0.651498 9.363C0.523965 9.46925 0.483692 9.6605 0.570951 9.81633L1.9134 12.2672C1.99394 12.423 2.17517 12.4797 2.32284 12.423L3.99419 11.7076C4.34322 11.9909 4.70568 12.2317 5.12855 12.4088L5.3769 14.2859C5.40375 14.4559 5.54471 14.5834 5.71251 14.5834H8.39741C8.56521 14.5834 8.70617 14.4559 8.73302 14.2859L8.98137 12.4088C9.40424 12.2247 9.7667 11.9909 10.1157 11.7076L11.7871 12.423C11.9347 12.4797 12.116 12.423 12.1965 12.2672L13.539 9.81633C13.6195 9.6605 13.586 9.46925 13.4584 9.363L12.0421 8.18717Z" fill="#B6B6B6"/>
</svg>
