<svg xmlns="http://www.w3.org/2000/svg" width="16" height="17" fill="none" viewBox="0 0 16 17">
  <path fill="#0075B4" stroke="#0075B4" stroke-width=".3" d="M3.94 4.182h3.641c.438 0 .782-.375.782-.817 0-.441-.344-.816-.782-.816h-3.79c-.785 0-1.414.675-1.414 1.483v9.333c0 .809.629 1.484 1.414 1.484h3.79c.438 0 .782-.375.782-.817 0-.442-.344-.817-.782-.817h-3.64V4.182Z"/>
  <path fill="#0075B4" stroke="#0075B4" stroke-width=".3" d="m13.787 8.362-1.762-1.86-.653.337h-.15v1.043H6.95c-.438 0-.782.375-.782.817 0 .442.344.816.782.816h4.272v1.044a.48.48 0 0 0 .286.447c.164.07.367.045.51-.111l1.761-1.858a.49.49 0 0 0 .008-.675Z"/>
</svg>
