<svg xmlns="http://www.w3.org/2000/svg" width="13" height="10" fill="none" viewBox="0 0 13 10">
  <path fill="#0075B4" fill-rule="evenodd" d="M0 2.602V1.398C0 1.1.11.814.305.603.5.392.765.273 1.04.273h10.92c.276 0 .54.119.735.33.195.21.305.497.305.795V2.65c0 .177-.048.35-.138.497a.85.85 0 0 1-.369.331 1.33 1.33 0 0 0-.579.522 1.49 1.49 0 0 0-.214.78c0 .278.078.549.221.78.144.23.347.409.584.514a.818.818 0 0 1 .36.319c.088.142.135.31.135.481v1.274c0 .299-.11.585-.305.796-.195.21-.46.33-.735.33H1.04c-.276 0-.54-.12-.735-.33A1.173 1.173 0 0 1 0 8.148V6.95c0-.385.209-.734.534-.893.228-.111.423-.292.559-.52.136-.227.208-.493.208-.764s-.073-.537-.21-.764a1.334 1.334 0 0 0-.56-.518.923.923 0 0 1-.387-.36A1.033 1.033 0 0 1 0 2.603Zm9.36.765a.751.751 0 0 0 .552-.247.88.88 0 0 0 .228-.597.88.88 0 0 0-.228-.596.751.751 0 0 0-.552-.247.751.751 0 0 0-.552.247.88.88 0 0 0-.228.596.88.88 0 0 0 .228.597.751.751 0 0 0 .552.247Zm0 2.25a.751.751 0 0 0 .552-.247.88.88 0 0 0 .228-.597.88.88 0 0 0-.228-.596.751.751 0 0 0-.552-.247.751.751 0 0 0-.552.247.88.88 0 0 0-.228.596.88.88 0 0 0 .228.597.751.751 0 0 0 .552.247Zm0 2.25a.751.751 0 0 0 .552-.247.88.88 0 0 0 .228-.597.88.88 0 0 0-.228-.596.751.751 0 0 0-.552-.247.751.751 0 0 0-.552.247.88.88 0 0 0-.228.596.88.88 0 0 0 .228.597.751.751 0 0 0 .552.247Z" clip-rule="evenodd"/>
</svg>
