<svg xmlns="http://www.w3.org/2000/svg" width="14" height="15" fill="none" viewBox="0 0 14 15">
  <path fill="#0075B4" d="M7.054 10.253c-.623 0-1.22-.262-1.661-.726a2.55 2.55 0 0 1-.688-1.753c0-.658.247-1.289.688-1.754a2.289 2.289 0 0 1 1.661-.726c.623 0 1.22.262 1.661.726a2.55 2.55 0 0 1 .688 1.754 2.55 2.55 0 0 1-.688 1.753 2.289 2.289 0 0 1-1.661.726Zm4.987-1.792c.027-.227.047-.454.047-.687 0-.234-.02-.468-.047-.709l1.416-1.154a.37.37 0 0 0 .081-.454l-1.343-2.45a.322.322 0 0 0-.409-.156l-1.671.708a4.812 4.812 0 0 0-1.135-.694L8.732.988a.363.363 0 0 0-.116-.214.33.33 0 0 0-.22-.084H5.712a.345.345 0 0 0-.336.298l-.248 1.877a4.81 4.81 0 0 0-1.135.694L2.322 2.85a.322.322 0 0 0-.41.155L.57 5.457a.362.362 0 0 0 .08.454l1.417 1.154a6.36 6.36 0 0 0-.047.709c0 .233.02.46.047.687L.65 9.636a.362.362 0 0 0-.081.454l1.342 2.45a.33.33 0 0 0 .41.156l1.671-.715c.35.283.712.524 1.135.701l.248 1.877c.027.17.168.298.336.298h2.684a.345.345 0 0 0 .336-.298l.248-1.877a4.836 4.836 0 0 0 1.135-.701l1.671.715a.33.33 0 0 0 .41-.155l1.342-2.451a.37.37 0 0 0-.08-.454L12.04 8.461Z"/>
</svg>
