<svg width="13" height="9" viewBox="0 0 13 9" fill="none" xmlns="http://www.w3.org/2000/svg">
<path fill-rule="evenodd" clip-rule="evenodd" d="M0 2.32847V1.125C0 0.826631 0.109571 0.540483 0.304609 0.329505C0.499647 0.118526 0.764175 0 1.04 0H11.96C12.2358 0 12.5004 0.118526 12.6954 0.329505C12.8904 0.540483 13 0.826631 13 1.125V2.37656C13 2.55321 12.9519 2.72594 12.8617 2.87322C12.7716 3.02051 12.6433 3.13584 12.493 3.20484C12.2567 3.31303 12.0553 3.4944 11.9142 3.72613C11.773 3.95786 11.6983 4.2296 11.6996 4.50712C11.7009 4.78465 11.778 5.05556 11.9213 5.28576C12.0647 5.51596 12.2677 5.69515 12.505 5.80078C12.6514 5.86611 12.7766 5.977 12.8648 6.1194C12.9529 6.2618 13 6.42929 13 6.60066V7.875C13 8.17337 12.8904 8.45952 12.6954 8.6705C12.5004 8.88147 12.2358 9 11.96 9H1.04C0.764175 9 0.499647 8.88147 0.304609 8.6705C0.109571 8.45952 0 8.17337 0 7.875V6.67603C0 6.29072 0.20878 5.94113 0.53378 5.78278C0.762466 5.6715 0.956525 5.49105 1.09258 5.2632C1.22863 5.03534 1.30087 4.76978 1.3006 4.49853C1.30032 4.22727 1.22754 3.96189 1.09103 3.73435C0.954515 3.50682 0.760091 3.32684 0.53118 3.21609C0.37301 3.13929 0.238726 3.01467 0.14449 2.85725C0.0502527 2.69982 7.69073e-05 2.51602 0 2.32847ZM9.36 3.09375C9.56687 3.09375 9.76526 3.00486 9.91154 2.84662C10.0578 2.68839 10.14 2.47378 10.14 2.25C10.14 2.02622 10.0578 1.81161 9.91154 1.65338C9.76526 1.49514 9.56687 1.40625 9.36 1.40625C9.15313 1.40625 8.95473 1.49514 8.80846 1.65338C8.66218 1.81161 8.58 2.02622 8.58 2.25C8.58 2.47378 8.66218 2.68839 8.80846 2.84662C8.95473 3.00486 9.15313 3.09375 9.36 3.09375ZM9.36 5.34375C9.56687 5.34375 9.76526 5.25486 9.91154 5.09662C10.0578 4.93839 10.14 4.72378 10.14 4.5C10.14 4.27622 10.0578 4.06161 9.91154 3.90338C9.76526 3.74514 9.56687 3.65625 9.36 3.65625C9.15313 3.65625 8.95473 3.74514 8.80846 3.90338C8.66218 4.06161 8.58 4.27622 8.58 4.5C8.58 4.72378 8.66218 4.93839 8.80846 5.09662C8.95473 5.25486 9.15313 5.34375 9.36 5.34375ZM9.36 7.59375C9.56687 7.59375 9.76526 7.50485 9.91154 7.34662C10.0578 7.18839 10.14 6.97378 10.14 6.75C10.14 6.52622 10.0578 6.31161 9.91154 6.15338C9.76526 5.99515 9.56687 5.90625 9.36 5.90625C9.15313 5.90625 8.95473 5.99515 8.80846 6.15338C8.66218 6.31161 8.58 6.52622 8.58 6.75C8.58 6.97378 8.66218 7.18839 8.80846 7.34662C8.95473 7.50485 9.15313 7.59375 9.36 7.59375Z" fill="white"/>
</svg>
