<svg width="16" height="17" viewBox="0 0 16 17" fill="none" xmlns="http://www.w3.org/2000/svg">
<path d="M3.7918 3.75863H7.58223C7.92969 3.75863 8.21397 3.45863 8.21397 3.09196C8.21397 2.72529 7.92969 2.42529 7.58223 2.42529H3.7918C3.09689 2.42529 2.52832 3.02529 2.52832 3.75863V13.092C2.52832 13.8253 3.09689 14.4253 3.7918 14.4253H7.58223C7.92969 14.4253 8.21397 14.1253 8.21397 13.7586C8.21397 13.392 7.92969 13.092 7.58223 13.092H3.7918V3.75863Z" fill="white"/>
<path d="M13.6781 8.19199L11.9156 6.33199C11.8716 6.28435 11.8152 6.25164 11.7536 6.23803C11.6919 6.22442 11.6278 6.23054 11.5695 6.2556C11.5111 6.28065 11.4612 6.32351 11.4261 6.37869C11.3909 6.43386 11.3722 6.49885 11.3723 6.56532V7.75865H6.9501C6.60264 7.75865 6.31836 8.05865 6.31836 8.42532C6.31836 8.79199 6.60264 9.09199 6.9501 9.09199H11.3723V10.2853C11.3723 10.5853 11.7134 10.732 11.9092 10.5187L13.6718 8.65865C13.7981 8.53199 13.7981 8.31865 13.6781 8.19199Z" fill="white"/>
</svg>
