<svg width="14" height="15" viewBox="0 0 14 15" fill="none" xmlns="http://www.w3.org/2000/svg">
<path d="M6.68777 10.1919C6.06471 10.1919 5.46716 9.9307 5.02658 9.46576C4.58601 9.00083 4.33849 8.37024 4.33849 7.71273C4.33849 7.05521 4.58601 6.42463 5.02658 5.95969C5.46716 5.49476 6.06471 5.23356 6.68777 5.23356C7.31084 5.23356 7.90839 5.49476 8.34896 5.95969C8.78954 6.42463 9.03705 7.05521 9.03705 7.71273C9.03705 8.37024 8.78954 9.00083 8.34896 9.46576C7.90839 9.9307 7.31084 10.1919 6.68777 10.1919ZM11.675 8.39981C11.7018 8.17315 11.7219 7.94648 11.7219 7.71273C11.7219 7.47898 11.7018 7.24523 11.675 7.0044L13.0912 5.84981C13.2188 5.74356 13.2523 5.55231 13.1718 5.39648L11.8293 2.94565C11.7488 2.78981 11.5676 2.72606 11.4199 2.78981L9.74855 3.49815C9.39951 3.2219 9.03705 2.98106 8.61418 2.80398L8.36583 0.926896C8.35219 0.843466 8.31101 0.767823 8.24958 0.71337C8.18816 0.658916 8.11044 0.629168 8.03022 0.629396H5.34533C5.17752 0.629396 5.03656 0.756896 5.00972 0.926896L4.76136 2.80398C4.33849 2.98106 3.97603 3.2219 3.627 3.49815L1.95565 2.78981C1.80799 2.72606 1.62676 2.78981 1.54621 2.94565L0.203763 5.39648C0.116505 5.55231 0.156778 5.74356 0.28431 5.84981L1.70059 7.0044C1.67374 7.24523 1.6536 7.47898 1.6536 7.71273C1.6536 7.94648 1.67374 8.17315 1.70059 8.39981L0.28431 9.57565C0.156778 9.6819 0.116505 9.87315 0.203763 10.029L1.54621 12.4798C1.62676 12.6356 1.80799 12.6923 1.95565 12.6356L3.627 11.9202C3.97603 12.2036 4.33849 12.4444 4.76136 12.6215L5.00972 14.4986C5.03656 14.6686 5.17752 14.7961 5.34533 14.7961H8.03022C8.19802 14.7961 8.33898 14.6686 8.36583 14.4986L8.61418 12.6215C9.03705 12.4373 9.39951 12.2036 9.74855 11.9202L11.4199 12.6356C11.5676 12.6923 11.7488 12.6356 11.8293 12.4798L13.1718 10.029C13.2523 9.87315 13.2188 9.6819 13.0912 9.57565L11.675 8.39981Z" fill="white"/>
</svg>
