<svg width="152" height="153" viewBox="0 0 152 153" fill="none" xmlns="http://www.w3.org/2000/svg">
<path d="M76.0003 0.666992L92.9725 13.667L113.917 10.7781L121.861 30.6392L141.723 38.5837L138.834 59.5281L151.834 76.5003L138.834 93.4725L141.723 114.417L121.861 122.361L113.917 142.223L92.9725 139.334L76.0003 152.334L59.0281 139.334L38.0837 142.223L30.1392 122.361L10.2781 114.417L13.167 93.4725L0.166992 76.5003L13.167 59.5281L10.2781 38.5837L30.1392 30.6392L38.0837 10.7781L59.0281 13.667L76.0003 0.666992Z" fill="#0096E7"/>
<path d="M114.278 42.5557L65.1673 91.6668L44.9451 71.4445L34.834 81.5557L65.1673 111.889L124.39 52.6668L114.278 42.5557Z" fill="#B0E3FF"/>
</svg>
