<svg width="36" height="37" viewBox="0 0 36 37" fill="none" xmlns="http://www.w3.org/2000/svg">
<rect y="0.359863" width="36" height="36" rx="8" fill="#F8F8F8"/>
<path d="M21.0271 11.0613V11.0581H21.8711L22.1794 11.1197C22.385 11.1597 22.5717 11.2121 22.7394 11.2769C22.9071 11.3418 23.0694 11.4174 23.2263 11.5038C23.3832 11.5903 23.5255 11.6784 23.6532 11.768C23.7798 11.8566 23.8934 11.9507 23.9941 12.0501C24.0936 12.1506 24.2489 12.1765 24.4599 12.1279C24.6709 12.0792 24.8981 12.0117 25.1416 11.9253C25.385 11.8388 25.6258 11.7416 25.8638 11.6335C26.1019 11.5254 26.2469 11.4568 26.2988 11.4277C26.3497 11.3974 26.3768 11.3812 26.38 11.379L26.3832 11.3742L26.3995 11.3661L26.4157 11.358L26.4319 11.3499L26.4482 11.3418L26.4514 11.3369L26.4563 11.3336L26.4612 11.3304L26.4644 11.3255L26.4806 11.3207L26.4968 11.3174L26.4936 11.3418L26.4887 11.3661L26.4806 11.3904L26.4725 11.4147L26.4644 11.4309L26.4563 11.4471L26.4482 11.4714C26.4427 11.4876 26.4373 11.5092 26.4319 11.5363C26.4265 11.5633 26.3751 11.6713 26.2777 11.8604C26.1803 12.0495 26.0586 12.2413 25.9125 12.4358C25.7665 12.6303 25.6355 12.7773 25.5198 12.8767C25.4029 12.9772 25.3255 13.0474 25.2876 13.0874C25.2498 13.1285 25.2038 13.1663 25.1497 13.2009L25.0685 13.2543L25.0523 13.2624L25.0361 13.2706L25.0328 13.2754L25.028 13.2787L25.0231 13.2819L25.0198 13.2868L25.0036 13.2949L24.9874 13.303L24.9841 13.3078L24.9793 13.3111L24.9744 13.3143L24.9711 13.3192L24.9679 13.324L24.963 13.3273L24.9582 13.3305L24.9549 13.3354H25.0361L25.4905 13.2381C25.7935 13.1733 26.083 13.095 26.3589 13.0031L26.7971 12.8572L26.8458 12.841L26.8702 12.8329L26.8864 12.8248L26.9026 12.8167L26.9188 12.8086L26.9351 12.8005L26.9675 12.7956L27 12.7924V12.8248L26.9919 12.8281L26.9838 12.8329L26.9805 12.8378L26.9757 12.841L26.9708 12.8443L26.9675 12.8491L26.9643 12.854L26.9594 12.8572L26.9546 12.8605L26.9513 12.8653L26.9481 12.8702L26.9432 12.8734L26.9351 12.8897L26.927 12.9059L26.9221 12.9091C26.9199 12.9123 26.8512 13.0042 26.716 13.1846C26.5807 13.3662 26.5077 13.458 26.4968 13.4602C26.486 13.4634 26.4709 13.4796 26.4514 13.5088C26.433 13.5391 26.3183 13.6596 26.1073 13.8703C25.8963 14.081 25.6897 14.2684 25.4873 14.4327C25.2839 14.598 25.1811 14.8012 25.1789 15.0421C25.1757 15.282 25.1632 15.5532 25.1416 15.8558C25.1199 16.1584 25.0794 16.4852 25.0198 16.8364C24.9603 17.1876 24.8684 17.5847 24.7439 18.0277C24.6195 18.4707 24.468 18.903 24.2894 19.3244C24.1109 19.7458 23.9243 20.124 23.7295 20.459C23.5347 20.794 23.3562 21.0776 23.1939 21.3099C23.0316 21.5422 22.8666 21.7611 22.6988 21.9664C22.5311 22.1717 22.319 22.4029 22.0626 22.6601C21.8051 22.9162 21.6644 23.0567 21.6406 23.0815C21.6157 23.1053 21.5097 23.1939 21.3225 23.3473C21.1363 23.5018 20.9362 23.6564 20.7219 23.8109C20.5088 23.9643 20.3129 24.0924 20.1344 24.195C19.9558 24.2977 19.7405 24.4149 19.4884 24.5467C19.2373 24.6797 18.9657 24.8028 18.6736 24.9163C18.3814 25.0298 18.073 25.1351 17.7484 25.2324C17.4238 25.3296 17.11 25.4053 16.807 25.4593C16.5041 25.5133 16.1605 25.5592 15.7764 25.597L15.2002 25.6538V25.6619H14.1452V25.6538L14.0072 25.6457C13.9152 25.6403 13.8395 25.6349 13.78 25.6295C13.7205 25.6241 13.4959 25.5943 13.1064 25.5403C12.7169 25.4863 12.4112 25.4323 12.1894 25.3782C11.9675 25.3242 11.6375 25.2215 11.1993 25.0703C10.761 24.919 10.3861 24.7661 10.0745 24.6116C9.76394 24.4581 9.56917 24.3609 9.49017 24.3198C9.41226 24.2798 9.32462 24.2301 9.22723 24.1707L9.08115 24.0816L9.07792 24.0767L9.07304 24.0735L9.06817 24.0702L9.06492 24.0654L9.04869 24.0572L9.03246 24.0491L9.02923 24.0443L9.02435 24.041L9.01948 24.0378L9.01623 24.0329L9.013 24.0281L9.00812 24.0248H9V23.9924L9.01623 23.9957L9.03246 24.0005L9.1055 24.0086C9.15419 24.014 9.28675 24.0221 9.50316 24.0329C9.71958 24.0437 9.9495 24.0437 10.193 24.0329C10.4364 24.0221 10.6853 23.9978 10.9396 23.96C11.1939 23.9222 11.4941 23.8574 11.8404 23.7655C12.1867 23.6736 12.5048 23.5645 12.7948 23.4381C13.0837 23.3106 13.2893 23.2155 13.4116 23.1528C13.5327 23.0912 13.7178 22.9767 13.9666 22.8092L14.3399 22.558L14.3432 22.5531L14.3481 22.5499L14.3529 22.5466L14.3562 22.5418L14.3594 22.5369L14.3643 22.5337L14.3692 22.5304L14.3724 22.5256L14.3886 22.5207L14.4049 22.5175L14.4081 22.5012L14.413 22.485L14.4179 22.4818L14.4211 22.4769L14.2913 22.4688C14.2047 22.4634 14.1208 22.458 14.0397 22.4526C13.9585 22.4472 13.8314 22.4229 13.6583 22.3797C13.4851 22.3365 13.2985 22.2716 13.0983 22.1852C12.8981 22.0987 12.7033 21.9961 12.514 21.8772C12.3246 21.7584 12.1877 21.6595 12.1033 21.5806C12.02 21.5028 11.9118 21.3926 11.7787 21.25C11.6467 21.1062 11.532 20.9587 11.4346 20.8075C11.3372 20.6562 11.2442 20.4817 11.1555 20.2839L11.0207 19.9889L11.0126 19.9646L11.0045 19.9403L10.9996 19.9241L10.9964 19.9079L11.0207 19.9111L11.0451 19.916L11.2236 19.9403C11.3427 19.9565 11.5293 19.9619 11.7836 19.9565C12.0379 19.9511 12.2137 19.9403 12.3111 19.9241C12.4085 19.9079 12.468 19.8971 12.4896 19.8917L12.5221 19.8836L12.5627 19.8755L12.6032 19.8674L12.6065 19.8625L12.6114 19.8593L12.6162 19.856L12.6195 19.8512L12.587 19.8431L12.5546 19.835L12.5221 19.8269L12.4896 19.8188L12.4572 19.8106C12.4355 19.8052 12.3977 19.7944 12.3436 19.7782C12.2895 19.762 12.1434 19.7026 11.9053 19.5999C11.6673 19.4973 11.4779 19.3973 11.3372 19.3001C11.1962 19.2025 11.0618 19.0959 10.9347 18.9808C10.8081 18.8641 10.6691 18.7139 10.5176 18.5302C10.3661 18.3465 10.2308 18.1331 10.1118 17.8899C9.99279 17.6468 9.90352 17.4145 9.844 17.193C9.78472 16.9728 9.74561 16.7476 9.72716 16.5203L9.69793 16.18L9.71416 16.1832L9.73039 16.1881L9.74662 16.1962L9.76285 16.2043L9.77908 16.2124L9.79531 16.2205L10.0469 16.3339C10.2146 16.4096 10.4229 16.4744 10.6718 16.5284C10.9207 16.5825 11.0694 16.6122 11.1181 16.6176L11.1912 16.6257H11.3372L11.334 16.6208L11.3291 16.6176L11.3243 16.6143L11.321 16.6095L11.3178 16.6046L11.3129 16.6014L11.308 16.5981L11.3048 16.5933L11.2885 16.5852L11.2723 16.5771L11.2691 16.5722L11.2642 16.569L11.2593 16.5657L11.2561 16.5609L11.2399 16.5528L11.2236 16.5447L11.2204 16.5398C11.2171 16.5376 11.1706 16.503 11.0808 16.4361C10.9921 16.368 10.899 16.2799 10.8016 16.1719C10.7042 16.0638 10.6069 15.9503 10.5095 15.8315C10.4119 15.7124 10.325 15.5849 10.2498 15.4506C10.174 15.3155 10.094 15.1437 10.0096 14.9352C9.92625 14.7277 9.86294 14.5186 9.81966 14.3079C9.77639 14.0972 9.75204 13.8892 9.74662 13.6839C9.74121 13.4786 9.74662 13.303 9.76285 13.1571C9.77908 13.0112 9.81154 12.8464 9.86023 12.6627C9.90893 12.479 9.97927 12.2845 10.0712 12.0792L10.2092 11.7713L10.2173 11.747L10.2254 11.7227L10.2303 11.7194L10.2335 11.7145L10.2368 11.7097L10.2417 11.7064L10.2465 11.7097L10.2498 11.7145L10.253 11.7194L10.2579 11.7227L10.2628 11.7259L10.266 11.7308L10.2693 11.7356L10.2741 11.7389L10.2822 11.7551L10.2904 11.7713L10.2952 11.7745L10.2985 11.7794L10.5176 12.0225C10.6637 12.1846 10.8368 12.3656 11.037 12.5655C11.2372 12.7654 11.3481 12.8691 11.3697 12.8767C11.3914 12.8853 11.4184 12.9102 11.4509 12.9512C11.4833 12.9912 11.5915 13.0869 11.7755 13.2381C11.9594 13.3894 12.2002 13.565 12.4977 13.7649C12.7953 13.9648 13.1253 14.162 13.4878 14.3565C13.8503 14.551 14.2399 14.7266 14.6564 14.8833C15.073 15.04 15.3652 15.1426 15.5329 15.1912C15.7006 15.2399 15.9874 15.302 16.3931 15.3776C16.7989 15.4533 17.1046 15.5019 17.3102 15.5235C17.5158 15.5451 17.6565 15.5576 17.7322 15.5608L17.8458 15.564L17.8426 15.5397L17.8377 15.5154L17.8052 15.3128C17.7836 15.1777 17.7728 14.9886 17.7728 14.7455C17.7728 14.5024 17.7917 14.2782 17.8296 14.0729C17.8675 13.8676 17.9243 13.6596 18 13.4488C18.0757 13.2381 18.1499 13.069 18.2224 12.9415C18.296 12.8151 18.3923 12.6708 18.5113 12.5088C18.6303 12.3467 18.7845 12.1792 18.9739 12.0063C19.1632 11.8334 19.3796 11.6794 19.6231 11.5444C19.8665 11.4093 20.0911 11.3066 20.2967 11.2364C20.5023 11.1662 20.6754 11.1202 20.8161 11.0986C20.9567 11.077 21.0271 11.0646 21.0271 11.0613Z" fill="#0075B4"/>
</svg>
