<svg width="36" height="37" viewBox="0 0 36 37" fill="none" xmlns="http://www.w3.org/2000/svg">
<rect y="0.359863" width="36" height="36" rx="8" fill="#F8F8F8"/>
<path fill-rule="evenodd" clip-rule="evenodd" d="M9 18.3599C9 14.7647 9 12.9672 9.85669 11.6724C10.2392 11.0943 10.7344 10.5991 11.3126 10.2166C12.6073 9.35986 14.4049 9.35986 18 9.35986C21.5951 9.35986 23.3927 9.35986 24.6874 10.2166C25.2656 10.5991 25.7608 11.0943 26.1433 11.6724C27 12.9672 27 14.7647 27 18.3599C27 21.955 27 23.7526 26.1433 25.0473C25.7608 25.6255 25.2656 26.1206 24.6874 26.5032C23.3927 27.3599 21.5951 27.3599 18 27.3599C14.4049 27.3599 12.6073 27.3599 11.3126 26.5032C10.7344 26.1206 10.2392 25.6255 9.85669 25.0473C9 23.7526 9 21.955 9 18.3599ZM22.6593 18.3601C22.6593 20.9334 20.5732 23.0195 17.9998 23.0195C15.4265 23.0195 13.3404 20.9334 13.3404 18.3601C13.3404 15.7868 15.4265 13.7007 17.9998 13.7007C20.5732 13.7007 22.6593 15.7868 22.6593 18.3601ZM17.9998 21.4431C19.7025 21.4431 21.0828 20.0628 21.0828 18.3601C21.0828 16.6574 19.7025 15.2771 17.9998 15.2771C16.2971 15.2771 14.9168 16.6574 14.9168 18.3601C14.9168 20.0628 16.2971 21.4431 17.9998 21.4431ZM22.8433 14.5614C23.4479 14.5614 23.9381 14.0712 23.9381 13.4666C23.9381 12.8619 23.4479 12.3718 22.8433 12.3718C22.2386 12.3718 21.7485 12.8619 21.7485 13.4666C21.7485 14.0712 22.2386 14.5614 22.8433 14.5614Z" fill="#0075B4"/>
</svg>
