<svg width="14" height="14" viewBox="0 0 14 14" fill="none" xmlns="http://www.w3.org/2000/svg">
<path d="M13.5532 2.19608H10.4255V1.5098C10.4255 1.10938 10.2529 0.725355 9.94569 0.442211C9.63844 0.159068 9.22174 0 8.78723 0H5.21277C4.77826 0 4.36155 0.159068 4.05431 0.442211C3.74707 0.725355 3.57447 1.10938 3.57447 1.5098V2.19608H0.446809C0.328308 2.19608 0.21466 2.23946 0.130867 2.31668C0.0470743 2.3939 0 2.49864 0 2.60784C0 2.71705 0.0470743 2.82178 0.130867 2.899C0.21466 2.97623 0.328308 3.01961 0.446809 3.01961H1.19149V13.0392C1.19149 13.294 1.30133 13.5384 1.49685 13.7186C1.69236 13.8988 1.95754 14 2.23404 14H11.766C12.0425 14 12.3076 13.8988 12.5032 13.7186C12.6987 13.5384 12.8085 13.294 12.8085 13.0392V3.01961H13.5532C13.6717 3.01961 13.7853 2.97623 13.8691 2.899C13.9529 2.82178 14 2.71705 14 2.60784C14 2.49864 13.9529 2.3939 13.8691 2.31668C13.7853 2.23946 13.6717 2.19608 13.5532 2.19608ZM4.46808 1.5098C4.46808 1.32779 4.54654 1.15324 4.6862 1.02453C4.82585 0.895833 5.01526 0.823529 5.21277 0.823529H8.78723C8.98474 0.823529 9.17415 0.895833 9.3138 1.02453C9.45346 1.15324 9.53191 1.32779 9.53191 1.5098V2.19608H4.46808V1.5098ZM11.9149 13.0392C11.9149 13.0756 11.8992 13.1105 11.8713 13.1363C11.8433 13.162 11.8055 13.1765 11.766 13.1765H2.23404C2.19454 13.1765 2.15666 13.162 2.12873 13.1363C2.1008 13.1105 2.08511 13.0756 2.08511 13.0392V3.01961H11.9149V13.0392ZM5.65957 5.90196V10.2941C5.65957 10.4033 5.6125 10.5081 5.52871 10.5853C5.44491 10.6625 5.33127 10.7059 5.21277 10.7059C5.09426 10.7059 4.98062 10.6625 4.89682 10.5853C4.81303 10.5081 4.76596 10.4033 4.76596 10.2941V5.90196C4.76596 5.79275 4.81303 5.68802 4.89682 5.6108C4.98062 5.53358 5.09426 5.4902 5.21277 5.4902C5.33127 5.4902 5.44491 5.53358 5.52871 5.6108C5.6125 5.68802 5.65957 5.79275 5.65957 5.90196ZM9.23404 5.90196V10.2941C9.23404 10.4033 9.18697 10.5081 9.10318 10.5853C9.01938 10.6625 8.90574 10.7059 8.78723 10.7059C8.66873 10.7059 8.55509 10.6625 8.47129 10.5853C8.3875 10.5081 8.34043 10.4033 8.34043 10.2941V5.90196C8.34043 5.79275 8.3875 5.68802 8.47129 5.6108C8.55509 5.53358 8.66873 5.4902 8.78723 5.4902C8.90574 5.4902 9.01938 5.53358 9.10318 5.6108C9.18697 5.68802 9.23404 5.79275 9.23404 5.90196Z" fill="#929292"/>
</svg>
