<svg width="41" height="50" viewBox="0 0 41 50" fill="none" xmlns="http://www.w3.org/2000/svg">
<path d="M26.5508 4.16295C26.2181 3.79412 25.8139 3.49684 25.3627 3.28923C24.9116 3.08161 24.4228 2.96799 23.9263 2.9553C23.4298 2.9426 22.9359 3.03109 22.4747 3.21538C22.0135 3.39966 21.5947 3.67589 21.2436 4.02724L4.00219 21.2672C3.65367 21.6157 3.3791 22.031 3.19493 22.4881C3.01076 22.9453 2.92078 23.4349 2.93038 23.9277C2.93999 24.4205 3.04898 24.9062 3.25082 25.3558C3.45267 25.8055 3.74321 26.2097 4.10504 26.5444L6.06933 28.3601C7.08933 29.3029 8.48647 29.093 9.34076 28.7458C9.75998 28.5755 10.2191 28.5281 10.6642 28.6092C11.1094 28.6904 11.5222 28.8966 11.8544 29.2039C12.1866 29.5112 12.4243 29.9068 12.5398 30.3443C12.6553 30.7818 12.6437 31.2432 12.5065 31.6744C12.2279 32.553 12.1265 33.9629 13.1465 34.9058L14.6036 36.2544C15.2939 36.8929 16.2035 37.2413 17.1438 37.2272C18.084 37.2131 18.9828 36.8376 19.6536 36.1787L36.1222 20.0044C36.7956 19.3428 37.1875 18.4466 37.216 17.5029C37.2445 16.5593 36.9074 15.6411 36.275 14.9401L34.7393 13.2372C33.8322 12.233 32.465 12.2887 31.5965 12.5315C31.1695 12.6505 30.7179 12.6482 30.2922 12.5248C29.8665 12.4014 29.4837 12.1617 29.1866 11.8328C28.8896 11.5038 28.6901 11.0986 28.6106 10.6626C28.5311 10.2266 28.5747 9.777 28.7365 9.36438C29.0679 8.52295 29.2636 7.16866 28.3565 6.16438L26.5508 4.16295Z" fill="#E5E5E5" fill-opacity="0.73"/>
<path d="M27.886 14.163C27.5617 13.7941 27.1676 13.4968 26.7277 13.2892C26.2878 13.0816 25.8113 12.968 25.3272 12.9553C24.8431 12.9426 24.3616 13.0311 23.9119 13.2154C23.4622 13.3997 23.0538 13.6759 22.7115 14.0272L5.90116 31.2672C5.56135 31.6157 5.29365 32.031 5.11408 32.4881C4.93451 32.9453 4.84678 33.4349 4.85615 33.9277C4.86551 34.4205 4.97178 34.9062 5.16858 35.3558C5.36538 35.8055 5.64866 36.2097 6.00144 36.5444L7.91662 38.3601C8.91112 39.3029 10.2733 39.093 11.1063 38.7458C11.515 38.5755 11.9626 38.5281 12.3966 38.6092C12.8307 38.6904 13.2332 38.8966 13.5571 39.2039C13.8809 39.5112 14.1127 39.9068 14.2253 40.3443C14.3379 40.7818 14.3267 41.2432 14.1928 41.6744C13.9212 42.553 13.8223 43.9629 14.8168 44.9058L16.2375 46.2544C16.9106 46.8929 17.7975 47.2413 18.7142 47.2272C19.6309 47.2131 20.5072 46.8376 21.1613 46.1787L37.2182 30.0044C37.8748 29.3428 38.2569 28.4466 38.2846 27.5029C38.3124 26.5593 37.9837 25.6411 37.3672 24.9401L35.8699 23.2372C34.9854 22.233 33.6524 22.2887 32.8056 22.5315C32.3893 22.6505 31.949 22.6482 31.5339 22.5248C31.1189 22.4014 30.7456 22.1617 30.456 21.8328C30.1664 21.5038 29.9719 21.0986 29.8944 20.6626C29.8168 20.2266 29.8593 19.777 30.0171 19.3644C30.3402 18.523 30.531 17.1687 29.6466 16.1644L27.886 14.163Z" fill="#FFFAFA" fill-opacity="0.84"/>
</svg>
