<svg width="14" height="14" viewBox="0 0 14 14" fill="none" xmlns="http://www.w3.org/2000/svg">
<path d="M10.2487 1.4068C10.5597 1.09589 10.9813 0.921216 11.4211 0.921216C11.8608 0.921216 12.2824 1.09589 12.5934 1.4068C12.9043 1.71771 13.079 2.1394 13.079 2.5791C13.079 3.0188 12.9043 3.44049 12.5934 3.7514L8.04337 8.30134C7.96119 8.3835 7.85834 8.44193 7.74568 8.47044L4.78026 9.2198L5.52963 6.25442C5.55819 6.14159 5.61675 6.0386 5.6991 5.95637L10.2487 1.4068ZM13.2447 0.755439C13.0053 0.515937 12.7209 0.325952 12.408 0.196333C12.0951 0.0667142 11.7597 0 11.4211 0C11.0824 0 10.747 0.0667142 10.4341 0.196333C10.1212 0.325952 9.83685 0.515937 9.59737 0.755439L5.04737 5.30538C4.84788 5.50505 4.70607 5.75493 4.63695 6.02858L3.69821 9.74222C3.67862 9.81952 3.67943 9.9006 3.70059 9.97749C3.72174 10.0544 3.7625 10.1245 3.81887 10.1809C3.87525 10.2373 3.94531 10.2781 4.02219 10.2993C4.09908 10.3205 4.18015 10.3214 4.25747 10.3018L7.97116 9.36348C8.24502 9.29421 8.49505 9.15214 8.69474 8.95233L13.2447 4.40239C13.7283 3.91876 14 3.26284 14 2.57892C14 1.89499 13.7283 1.23907 13.2447 0.755439ZM7.57474 1.73543C7.26301 1.68376 6.94756 1.65789 6.63158 1.65806C3.47789 1.65806 0.921053 4.21487 0.921053 7.36851C0.921053 10.5222 3.47789 13.079 6.63158 13.079C9.78526 13.079 12.3421 10.5222 12.3421 7.36851C12.3421 7.04688 12.3156 6.73189 12.2647 6.425L13.0384 5.65058C13.1851 6.19879 13.2632 6.77425 13.2632 7.36851C13.2632 11.0309 10.2941 14 6.63158 14C2.96911 14 0 11.0309 0 7.36851C0 3.70608 2.96911 0.737018 6.63158 0.737018C7.22547 0.737018 7.80132 0.815123 8.34916 0.961752L7.57474 1.73543Z" fill="black"/>
</svg>
